<?xml version="1.0" encoding="UTF-8" standalone="no"?>
<svg
   version="1.1"
   width="264"
   height="353"
   id="svg29"
   sodipodi:docname="HSPA Mark.svg"
   inkscape:version="1.4.3 (0d15f75, 2025-12-25)"
   xmlns:inkscape="http://www.inkscape.org/namespaces/inkscape"
   xmlns:sodipodi="http://sodipodi.sourceforge.net/DTD/sodipodi-0.dtd"
   xmlns="http://www.w3.org/2000/svg"
   xmlns:svg="http://www.w3.org/2000/svg">
  <defs
     id="defs29">
    <rect
       x="300.34277"
       y="126.16629"
       width="1689.2885"
       height="328.25565"
       id="rect29" />
  </defs>
  <sodipodi:namedview
     id="namedview29"
     pagecolor="#ffffff"
     bordercolor="#000000"
     borderopacity="0.25"
     inkscape:showpageshadow="2"
     inkscape:pageopacity="0.0"
     inkscape:pagecheckerboard="0"
     inkscape:deskcolor="#d1d1d1"
     inkscape:zoom="0.89564336"
     inkscape:cx="964.66968"
     inkscape:cy="207.11369"
     inkscape:window-width="2880"
     inkscape:window-height="1514"
     inkscape:window-x="-11"
     inkscape:window-y="-11"
     inkscape:window-maximized="1"
     inkscape:current-layer="svg29" />
  <path
     d="m 179,0 c 3.15018,2.663655 4.56452,5.8454946 6.33594,9.5273438 0.3153,0.6515762 0.6306,1.3031512 0.95546,1.9744722 1.03426,2.142216 2.05908,4.288795 3.0836,6.435684 0.7237,1.504883 1.44774,3.009601 2.17212,4.51416 4.9116,10.224022 9.70372,20.500578 14.44653,30.803955 4.72946,10.237997 9.6612,20.372151 14.6106,30.505127 5.24884,10.751459 10.358,21.553138 15.35473,32.424558 5.44439,11.79138 11.14813,23.45485 16.86304,35.11695 1.76201,3.59598 3.51242,7.19741 5.25562,10.80255 0.85448,1.75573 1.72561,3.50334 2.59814,5.25018 0.46793,0.96438 0.93586,1.92876 1.41797,2.92236 0.39897,0.80559 0.79793,1.61117 1.20898,2.44117 1.45982,4.77661 -0.74961,8.50839 -2.97851,12.70727 -0.57081,1.08684 -1.14163,2.17368 -1.72974,3.29346 -0.30934,0.58267 -0.61869,1.16535 -0.93741,1.76568 -1.70269,3.20946 -3.38302,6.43057 -5.06332,9.6518 -0.54519,1.0442 -0.54519,1.0442 -1.10139,2.1095 -5.14773,9.89181 -10.08862,19.88894 -15.04476,29.87771 -4.36103,8.78913 -8.76836,17.54367 -13.36557,26.21201 C 217.53513,268.79827 212.26456,279.39351 207,290 c -5.23758,10.55213 -10.48538,21.08931 -16,31.5 -5.48503,10.42156 -10.73323,20.96646 -16,31.5 -57.75,0 -115.5,0 -175,0 1.53078,-4.59234 3.06576,-8.30568 5.28125,-12.53906 0.3256,-0.62618 0.65121,-1.25237 0.98668,-1.89752 0.70481,-1.35505 1.41145,-2.70915 2.11973,-4.06238 1.92397,-3.67734 3.833,-7.3624 5.74125,-11.04792 0.39848,-0.76927 0.79697,-1.53855 1.20753,-2.33114 5.19434,-10.05128 10.22143,-20.18651 15.24559,-30.32364 3.67552,-7.40188 7.42659,-14.75402 11.29688,-22.05615 C 47.2618,258.58155 52.38972,248.29979 57.5,238 62.54948,227.82275 67.61181,217.66115 72.9375,207.625 78.65472,196.84788 84.074769,185.92624 89.5,175 95.315087,163.2886 101.16317,151.60768 107.29248,140.05713 112.19629,130.78919 116.84003,121.39219 121.5,112 126.96355,100.9882 132.48174,90.019384 138.24145,79.15918 143.16021,69.856089 147.82311,60.426296 152.5,51 161.01852,33.830897 169.7262,16.775776 179,0 Z M 92,177 c 0.942432,4.71216 2.461505,8.3642 4.578125,12.59766 0.362614,0.73771 0.725229,1.47542 1.098831,2.23549 0.779769,1.58554 1.562022,3.16987 2.346514,4.75309 2.08191,4.2032 4.14437,8.41592 6.207,12.6286 0.4131,0.84293 0.8262,1.68586 1.25182,2.55433 3.45921,7.07434 6.79635,14.19822 10.08021,21.35583 4.83881,10.52959 9.8518,20.96303 14.9375,31.375 5.63828,11.54343 11.15076,23.12935 16.51831,34.80176 C 156.10399,314.64944 163.57252,329.81564 171,345 c 1.09306,-3.35579 0.89683,-5.78867 0.28505,-9.24428 -0.18374,-1.06134 -0.36747,-2.12269 -0.55678,-3.2162 -0.20931,-1.1591 -0.41862,-2.3182 -0.63428,-3.51242 -0.32164,-1.83707 -0.32164,-1.83707 -0.64979,-3.71126 -0.58922,-3.35632 -1.18569,-6.7112 -1.78525,-10.06569 -0.62547,-3.51022 -1.24119,-7.02216 -1.85782,-10.53395 -1.16946,-6.65209 -2.34688,-13.30274 -3.52753,-19.95286 -2.11479,-11.91342 -4.21558,-23.82932 -6.31421,-35.7456 -0.73697,-4.18285 -1.47726,-8.36509 -2.22034,-12.54686 -0.5697,-3.2088 -1.13635,-6.41815 -1.70365,-9.62737 -0.20729,-1.16113 -0.41457,-2.32225 -0.62814,-3.51856 -0.27984,-1.58779 -0.27984,-1.58779 -0.56533,-3.20766 -0.16353,-0.9212 -0.32707,-1.84241 -0.49556,-2.79153 C 150,215 150,215 150,212 c 9.56168,-3.04425 19.12423,-6.08577 28.6875,-9.125 0.70975,-0.22556 1.41949,-0.45112 2.15075,-0.68352 C 206.5281,194.02816 232.24634,185.96004 258,178 c 0,-0.33 0,-0.66 0,-1 -54.78,0 -109.56,0 -166,0 z"
     fill="#851d31"
     id="path1" />
  <path
     d="m 264,177 c -0.41653,0.83233 -0.83306,1.66466 -1.26221,2.52222 -3.85428,7.70434 -7.70281,15.41153 -11.54657,23.12112 -2.09285,4.19694 -4.18699,8.39323 -6.28163,12.58928 -1.54499,3.09519 -3.08922,6.19075 -4.63176,9.28715 -6.11127,12.2662 -12.23908,24.51686 -18.67013,36.61959 C 216.55833,270.66837 211.7943,280.34094 207,290 c -5.75019,11.58487 -11.54743,23.132 -17.60535,34.55954 -3.52525,6.65633 -6.87791,13.38793 -10.15246,20.17093 -0.39961,0.8134 -0.79922,1.6268 -1.21094,2.46484 -0.51724,1.06759 -0.51724,1.06759 -1.04492,2.15674 C 176,351 176,351 174,352 c -1.52063,-3.51701 -2.45885,-6.81496 -3.12041,-10.58559 -0.19772,-1.11176 -0.39544,-2.22352 -0.59915,-3.36897 -0.20945,-1.21004 -0.41889,-2.42007 -0.63469,-3.66678 -0.33934,-1.92266 -0.33934,-1.92266 -0.68555,-3.88417 -0.61866,-3.50722 -1.23033,-7.01563 -1.84029,-10.52437 -0.51002,-2.93046 -1.02329,-5.86034 -1.53652,-8.79023 -1.21036,-6.9104 -2.41489,-13.82181 -3.61586,-20.73385 -1.23912,-7.13093 -2.48831,-14.26006 -3.74241,-21.38838 -1.07687,-6.12307 -2.14737,-12.24723 -3.21279,-18.37231 -0.63621,-3.65712 -1.27486,-7.31378 -1.91968,-10.96939 -0.71814,-4.0731 -1.423,-8.14838 -2.12659,-12.22402 -0.32328,-1.81809 -0.32328,-1.81809 -0.65309,-3.67291 -0.18926,-1.10894 -0.37852,-2.21788 -0.57351,-3.36043 -0.16794,-0.96323 -0.33587,-1.92646 -0.50889,-2.91888 C 149.00095,215.01043 149.06855,213.35551 150,211 c 2.20917,-1.14609 2.20917,-1.14609 5.18262,-2.06787 1.11751,-0.35539 2.23502,-0.71078 3.3864,-1.07694 1.23019,-0.37244 2.46038,-0.74489 3.72785,-1.12863 1.28983,-0.40348 2.5792,-0.80845 3.86812,-1.21481 3.47005,-1.08945 6.94615,-2.15824 10.42383,-3.22301 3.59554,-1.10426 7.18559,-2.22609 10.77617,-3.34636 5.06901,-1.57968 10.13997,-3.15285 15.21354,-4.71782 8.14877,-2.51359 16.28303,-5.07011 24.40975,-7.65425 3.06559,-0.97073 6.13151,-1.94042 9.19763,-2.90948 1.90817,-0.6042 3.81566,-1.21058 5.72242,-1.81922 2.62309,-0.83566 5.24938,-1.66038 7.87683,-2.48224 0.7534,-0.24273 1.5068,-0.48547 2.28303,-0.73556 C 256.1647,177.35587 259.71263,176.74575 264,177 Z"
     fill="#a51d30"
     id="path2" />
</svg>
