<?xml version="1.0" encoding="UTF-8"?>
<svg version="1.1" xmlns="http://www.w3.org/2000/svg" width="1974" height="474">
<path d="M0 0 C3.15017553 2.66365504 4.56451708 5.84549457 6.3359375 9.52734375 C6.65123917 10.17891953 6.96654083 10.8304953 7.29139709 11.5018158 C8.32565594 13.64403203 9.35048147 15.7906105 10.375 17.9375 C11.0987007 19.44238313 11.82274459 20.94710127 12.54711914 22.45166016 C17.45871935 32.67568219 22.2508396 42.95223775 26.99365234 53.25561523 C31.72311053 63.49361182 36.65484718 73.62776583 41.60424805 83.76074219 C46.85309248 94.51220086 51.96225022 105.31387809 56.95898438 116.18530273 C62.40337363 127.97667691 68.10711473 139.64014526 73.82202148 151.30224609 C75.58403316 154.89823139 77.33443933 158.49965767 79.07763672 162.10479736 C79.93212346 163.86053239 80.80325174 165.6081418 81.67578125 167.35498047 C82.14371094 168.31936035 82.61164063 169.28374023 83.09375 170.27734375 C83.49271484 171.08292725 83.89167969 171.88851074 84.30273438 172.71850586 C85.7625523 177.49511598 83.55311856 181.22690339 81.32421875 185.42578125 C80.75340576 186.51262207 80.18259277 187.59946289 79.59448242 188.71923828 C79.28513763 189.30191467 78.97579285 189.88459106 78.65707397 190.48492432 C76.95437823 193.69438066 75.27404961 196.91549479 73.59375 200.13671875 C73.04855965 201.1809198 73.04855965 201.1809198 72.49235535 202.24621582 C67.34463255 212.13802991 62.40374439 222.13516093 57.44760132 232.12393188 C53.08657104 240.91306166 48.67924333 249.66759986 44.08203125 258.3359375 C38.53512874 268.79826757 33.26456189 279.39351037 28 290 C22.76241854 300.55213227 17.51461876 311.08930582 12 321.5 C6.51496921 331.9215585 1.26677215 342.4664557 -4 353 C-61.75 353 -119.5 353 -179 353 C-177.46921972 348.40765915 -175.93423826 344.69431971 -173.71875 340.4609375 C-173.3931459 339.83475525 -173.06754181 339.208573 -172.73207092 338.56341553 C-172.02725913 337.20836911 -171.32061784 335.85427303 -170.61233521 334.5010376 C-168.68836632 330.82370169 -166.77933861 327.13863919 -164.87109375 323.453125 C-164.47260727 322.68384674 -164.07412079 321.91456848 -163.66355896 321.12197876 C-158.46922112 311.07069995 -153.44212963 300.93546962 -148.41796875 290.79833984 C-144.74244738 283.39645692 -140.99138485 276.04431971 -137.12109375 268.7421875 C-131.73819643 258.5815472 -126.61027833 248.29978578 -121.5 238 C-116.45051738 227.8227482 -111.38819121 217.66114775 -106.0625 207.625 C-100.34527502 196.84788408 -94.92523076 185.92623794 -89.5 175 C-83.68491285 163.28860399 -77.83682811 151.60767588 -71.70751953 140.05712891 C-66.80371349 130.78918876 -62.15997038 121.39218836 -57.5 112 C-52.03645441 100.98820269 -46.51825902 90.01938397 -40.75854492 79.15917969 C-35.83979155 69.85608938 -31.17689297 60.42629591 -26.5 51 C-17.9814837 33.83089738 -9.27379981 16.77577609 0 0 Z M-87 177 C-86.057568 181.71216002 -84.53849487 185.36420168 -82.421875 189.59765625 C-82.05926071 190.33536758 -81.69664642 191.07307892 -81.32304382 191.83314514 C-80.5432754 193.41869464 -79.76102154 195.00302376 -78.97653198 196.58624268 C-76.89461737 200.7894403 -74.83216234 205.0021578 -72.76953125 209.21484375 C-72.35643204 210.05776978 -71.94333282 210.9006958 -71.51771545 211.76916504 C-68.05850143 218.84350545 -64.72136094 225.96739154 -61.4375 233.125 C-56.59868651 243.65458506 -51.5857037 254.08802882 -46.5 264.5 C-40.86172186 276.04343489 -35.34923803 287.62934635 -29.98168945 299.30175781 C-22.89600615 314.64943903 -15.42748043 329.81564303 -8 345 C-6.90694139 341.64420674 -7.1031687 339.21133201 -7.71495056 335.75572205 C-7.89868729 334.69437546 -8.08242401 333.63302887 -8.27172852 332.53952026 C-8.48104004 331.38042145 -8.69035156 330.22132263 -8.90600586 329.02709961 C-9.22765465 327.19002693 -9.22765465 327.19002693 -9.55580139 325.31584167 C-10.1450199 321.95951907 -10.74149316 318.60463518 -11.34104609 315.2501533 C-11.96651507 311.73992582 -12.58223963 308.22799105 -13.1988678 304.71620178 C-14.3683273 298.06411035 -15.54574903 291.41345607 -16.72639805 284.76334244 C-18.84119247 272.84991805 -20.94198244 260.93401894 -23.04060465 249.01773649 C-23.77758051 244.83488986 -24.51787368 240.65264747 -25.26094997 236.47088039 C-25.83065153 233.26207727 -26.3972998 230.05273433 -26.96459961 226.84350586 C-27.1718869 225.68238281 -27.37917419 224.52125977 -27.59274292 223.32495117 C-27.87257774 221.73716103 -27.87257774 221.73716103 -28.1580658 220.11729431 C-28.32160018 219.19608764 -28.48513456 218.27488096 -28.65362453 217.32575893 C-29 215 -29 215 -29 212 C-19.43832218 208.95574628 -9.87577492 205.91423237 -0.3125 202.875 C0.39724598 202.64943924 1.10699196 202.42387848 1.83824539 202.19148254 C27.52810155 194.02815724 53.24634485 185.96003813 79 178 C79 177.67 79 177.34 79 177 C24.22 177 -30.56 177 -87 177 Z " fill="#851D31" transform="translate(201,30)"/>
<path d="M0 0 C-0.41652832 0.83233154 -0.83305664 1.66466309 -1.26220703 2.5222168 C-5.11649258 10.22655567 -8.96501495 17.93374588 -12.80877686 25.64334106 C-14.90163033 29.84027866 -16.99576933 34.03657354 -19.09040451 38.23262215 C-20.6353973 41.327807 -22.17962942 44.42336661 -23.72216797 47.51977539 C-29.83343845 59.78596665 -35.96124806 72.03663462 -42.39230347 84.13935852 C-47.44167146 93.66837209 -52.20569914 103.34094319 -57 113 C-62.75018598 124.58487434 -68.54742795 136.13199562 -74.60534668 147.55953979 C-78.13059942 154.21586505 -81.48325932 160.94746573 -84.7578125 167.73046875 C-85.15742188 168.54386719 -85.55703125 169.35726562 -85.96875 170.1953125 C-86.48598633 171.26289795 -86.48598633 171.26289795 -87.01367188 172.35205078 C-88 174 -88 174 -90 175 C-91.52063179 171.48299174 -92.45885184 168.18503522 -93.1204071 164.41441345 C-93.31812714 163.30265244 -93.51584717 162.19089142 -93.71955872 161.04544067 C-93.9290062 159.83540375 -94.13845367 158.62536682 -94.35424805 157.37866211 C-94.69359375 155.4559977 -94.69359375 155.4559977 -95.03979492 153.49449158 C-95.65846084 149.98726963 -96.27013249 146.47886232 -96.88008857 142.97011638 C-97.39010487 140.03966213 -97.90338191 137.10978277 -98.41660529 134.17988878 C-99.62696666 127.26948629 -100.83149803 120.35808477 -102.0324707 113.44604492 C-103.27158831 106.31510545 -104.52078142 99.18598265 -105.77488488 92.05766481 C-106.85175255 85.93459152 -107.92225386 79.8104284 -108.9876712 73.68535239 C-109.6238787 70.02822747 -110.26252956 66.37157201 -110.90735435 62.71595573 C-111.62549314 58.64286108 -112.33034943 54.56757703 -113.03393555 50.49194336 C-113.35721581 48.67385162 -113.35721581 48.67385162 -113.68702698 46.81903076 C-113.87628754 45.71008957 -114.0655481 44.60114838 -114.26054382 43.45860291 C-114.42847789 42.49537078 -114.59641195 41.53213865 -114.76943493 40.53971767 C-114.99905294 38.01043207 -114.93145282 36.35550939 -114 34 C-111.79083252 32.85391235 -111.79083252 32.85391235 -108.81738281 31.93212891 C-107.69987137 31.57674042 -106.58235992 31.22135193 -105.4309845 30.85519409 C-104.20079086 30.48274567 -102.97059723 30.11029724 -101.703125 29.7265625 C-100.41329526 29.32308272 -99.12393052 28.91811378 -97.83500671 28.51174927 C-94.36495745 27.42230406 -90.88886265 26.35351162 -87.41117477 25.28874207 C-83.81563578 24.18447669 -80.22558928 23.06264711 -76.63500977 21.94238281 C-71.56599778 20.36269611 -66.49504302 18.7895325 -61.42146778 17.2245636 C-53.27270262 14.71096936 -45.13843692 12.15444623 -37.01171875 9.5703125 C-33.94612752 8.59957682 -30.88020867 7.62988619 -27.81408691 6.66082764 C-25.90591477 6.05663386 -23.99843441 5.45025065 -22.0916748 4.84161377 C-19.46858036 4.00594743 -16.84229363 3.18122647 -14.21484375 2.359375 C-13.46144211 2.11663849 -12.70804047 1.87390198 -11.93180847 1.62380981 C-7.83530459 0.35587452 -4.28736964 -0.25425344 0 0 Z " fill="#A51D30" transform="translate(286,207)"/>
<path d="M0 0 C14.19 0 28.38 0 43 0 C43 1.65 43 3.3 43 5 C42.04287109 5.29003906 42.04287109 5.29003906 41.06640625 5.5859375 C40.24011719 5.84632813 39.41382813 6.10671875 38.5625 6.375 C37.73878906 6.63023437 36.91507813 6.88546875 36.06640625 7.1484375 C33.82201984 7.80882227 33.82201984 7.80882227 33 10 C32.84357228 12.55083207 32.74171014 15.07938558 32.68359375 17.6328125 C32.66494263 18.29917725 32.6462915 18.96554199 32.6270752 19.65209961 C32.55874216 22.14293067 32.49861597 24.63398141 32.4375 27.125 C32.293125 32.69375 32.14875 38.2625 32 44 C47.84 43.67 63.68 43.34 80 43 C80.020625 38.17375 80.04125 33.3475 80.0625 28.375 C80.071604 26.86341309 80.08070801 25.35182617 80.09008789 23.79443359 C80.09258545 22.59125488 80.09508301 21.38807617 80.09765625 20.1484375 C80.10551147 18.31031494 80.10551147 18.31031494 80.11352539 16.43505859 C80.00646676 13.19567151 79.61478618 10.17816803 79 7 C74.05 6.01 74.05 6.01 69 5 C69 3.35 69 1.7 69 0 C83.19 0 97.38 0 112 0 C112 1.65 112 3.3 112 5 C111.37351562 5.15855469 110.74703125 5.31710938 110.1015625 5.48046875 C109.28429687 5.71378906 108.46703125 5.94710937 107.625 6.1875 C106.81289063 6.40792969 106.00078125 6.62835938 105.1640625 6.85546875 C102.83779613 7.82588392 102.83779613 7.82588392 101.88092041 10.1174469 C100.81132818 13.61737308 100.74574362 16.60376234 100.74121094 20.26538086 C100.7377063 20.97823746 100.73420166 21.69109406 100.73059082 22.42555237 C100.72181898 24.77208314 100.72760708 27.11831013 100.734375 29.46484375 C100.73302689 31.10242266 100.73108514 32.74000119 100.72857666 34.37757874 C100.72563143 37.80636411 100.72990312 41.23504513 100.73925781 44.66381836 C100.75064299 49.04965255 100.74409504 53.43524168 100.73211288 57.82106686 C100.72487033 61.20205008 100.72719336 64.58297565 100.73236847 67.96396065 C100.73369881 69.58062329 100.73207889 71.19729123 100.72740936 72.81394768 C100.72230567 75.07784674 100.7301083 77.34135453 100.74121094 79.60522461 C100.74280212 80.89142197 100.74439331 82.17761932 100.74603271 83.50279236 C101.00186419 87.02567045 101.60644058 89.76005986 103 93 C105.14364195 94.14414592 105.14364195 94.14414592 107.625 94.375 C108.44226563 94.50648438 109.25953125 94.63796875 110.1015625 94.7734375 C110.72804688 94.84820312 111.35453125 94.92296875 112 95 C113.125 98.75 113.125 98.75 112 101 C97.81 101 83.62 101 69 101 C68 98 68 98 69 95 C71.28151515 94.36599775 73.523257 94.11426317 75.87109375 93.8203125 C78.18215403 93.19353378 78.18215403 93.19353378 79.12084961 90.9440918 C80.21429717 87.28236336 80.24969164 83.85611556 80.1953125 80.07421875 C80.19106766 78.95283257 80.19106766 78.95283257 80.18673706 77.80879211 C80.17559469 75.4348612 80.15050162 73.06131575 80.125 70.6875 C80.11496249 69.0722711 80.10583799 67.45703624 80.09765625 65.84179688 C80.07567489 61.89438406 80.04118657 57.94725726 80 54 C77.0950524 53.16712356 74.52486082 52.87780212 71.50683594 52.88647461 C70.62622498 52.88655014 69.74561401 52.88662567 68.83831787 52.88670349 C67.42561615 52.89444542 67.42561615 52.89444542 65.984375 52.90234375 C65.01340881 52.9037587 64.04244263 52.90517365 63.04205322 52.90663147 C59.94467065 52.91222337 56.84736068 52.92477441 53.75 52.9375 C51.64843854 52.94251605 49.54687596 52.94707877 47.4453125 52.95117188 C42.2968246 52.96133872 37.14849347 52.9809158 32 53 C32.495 72.8 32.495 72.8 33 93 C36.96 93.66 40.92 94.32 45 95 C45 96.65 45 98.3 45 100 C44 101 44 101 40.03100586 101.11352539 C38.25894393 101.1133662 36.4868774 101.10766785 34.71484375 101.09765625 C33.78402481 101.0962413 32.85320587 101.09482635 31.8941803 101.09336853 C28.90858809 101.08775172 25.92306971 101.0751964 22.9375 101.0625 C20.91862087 101.05748716 18.89974057 101.05292388 16.88085938 101.04882812 C11.92054428 101.03777683 6.96028468 101.02050095 2 101 C1.505 98.525 1.505 98.525 1 96 C1.63808594 95.74605469 2.27617188 95.49210937 2.93359375 95.23046875 C3.75988281 94.88628906 4.58617187 94.54210937 5.4375 94.1875 C6.26121094 93.85105469 7.08492187 93.51460938 7.93359375 93.16796875 C10.33372488 92.11596912 10.33372488 92.11596912 11 89 C11.09591037 86.50619202 11.13646587 84.04062988 11.12939453 81.546875 C11.13114685 80.79047729 11.13289917 80.03407959 11.13470459 79.25476074 C11.13910772 76.75315053 11.13619052 74.25161094 11.1328125 71.75 C11.13348598 70.01269517 11.13445638 68.27539044 11.13571167 66.53808594 C11.13718656 62.89647525 11.13504078 59.25488909 11.13037109 55.61328125 C11.12467393 50.94242399 11.12795405 46.27162419 11.13394356 41.60076904 C11.1375548 38.01317918 11.13640799 34.42560297 11.13381577 30.8380127 C11.13314806 29.11560052 11.13396949 27.3931871 11.13629532 25.67077637 C11.13883104 23.26485911 11.13496822 20.85903529 11.12939453 18.453125 C11.13141876 17.73926636 11.13344299 17.02540771 11.13552856 16.28991699 C11.12244213 13.24507839 10.97125739 10.91377218 10 8 C7.67108904 6.97299556 7.67108904 6.97299556 4.9375 6.3125 C4.01839844 6.06113281 3.09929688 5.80976563 2.15234375 5.55078125 C1.44207031 5.36902344 0.73179687 5.18726563 0 5 C0 3.35 0 1.7 0 0 Z " fill="#000000" transform="translate(901,171)"/>
<path d="M0 0 C13.86 0 27.72 0 42 0 C42.495 2.475 42.495 2.475 43 5 C42.37351562 5.14695313 41.74703125 5.29390625 41.1015625 5.4453125 C40.28429687 5.66960937 39.46703125 5.89390625 38.625 6.125 C37.81289063 6.33382812 37.00078125 6.54265625 36.1640625 6.7578125 C33.74725881 7.85559802 33.74725881 7.85559802 32.87695312 10.64453125 C31.94104236 14.22558846 31.77197448 17.23311614 31.8046875 20.9296875 C31.80968262 22.09226074 31.81467773 23.25483398 31.81982422 24.45263672 C31.83803223 25.9120166 31.85624023 27.37139648 31.875 28.875 C31.91625 33.53625 31.9575 38.1975 32 43 C47.84 43.33 63.68 43.66 80 44 C80.04125 39.17375 80.0825 34.3475 80.125 29.375 C80.14320801 27.86341309 80.16141602 26.35182617 80.18017578 24.79443359 C80.1851709 23.59125488 80.19016602 22.38807617 80.1953125 21.1484375 C80.20578613 19.92302246 80.21625977 18.69760742 80.22705078 17.43505859 C79.99140491 13.86996455 79.66002005 9.66002005 77 7 C75.865625 6.855625 74.73125 6.71125 73.5625 6.5625 C70 6 70 6 68 4 C68.33 2.68 68.66 1.36 69 0 C82.86 0 96.72 0 111 0 C111.495 1.98 111.495 1.98 112 4 C108.99382731 7.00617269 106.17618402 6.59585316 102 7 C100.9933928 11.16947448 100.85191376 15.1995639 100.85473633 19.46484375 C100.85137772 20.19881378 100.8480191 20.93278381 100.84455872 21.68899536 C100.83509177 24.10518098 100.83310797 26.52129702 100.83203125 28.9375 C100.82881647 30.62231474 100.82545223 32.3071292 100.82194519 33.99194336 C100.81596513 37.51904955 100.81410421 41.04613128 100.81469727 44.57324219 C100.814799 49.08919126 100.80113023 53.60498351 100.78392506 58.12089539 C100.77280071 61.5987622 100.77077817 65.07659109 100.77130699 68.55447388 C100.77012817 70.21941673 100.76571189 71.8843606 100.75797462 73.54928589 C100.74816289 75.87802103 100.751057 78.20641547 100.75708008 80.53515625 C100.75146057 81.21998077 100.74584106 81.9048053 100.74005127 82.61038208 C100.76553504 86.49339899 101.15458084 89.55437956 103 93 C105.15824934 94.02818386 105.15824934 94.02818386 107.625 94.3125 C108.44226563 94.45300781 109.25953125 94.59351563 110.1015625 94.73828125 C111.04128906 94.86783203 111.04128906 94.86783203 112 95 C112 96.98 112 98.96 112 101 C97.81 101 83.62 101 69 101 C68.67 99.35 68.34 97.7 68 96 C73.8021978 94.02197802 73.8021978 94.02197802 76.25 93.75 C78.30149864 93.10884699 78.30149864 93.10884699 79.09716797 90.44091797 C80.09893825 86.62292167 80.25376613 83.10748575 80.1953125 79.1953125 C80.19106766 78.1093428 80.19106766 78.1093428 80.18673706 77.00143433 C80.17562087 74.7091151 80.15053312 72.41719937 80.125 70.125 C80.1149591 68.56250568 80.10583519 67.00000518 80.09765625 65.4375 C80.07570973 61.62484662 80.04124013 57.81249152 80 54 C77.2449219 53.22383417 74.79674998 52.87390396 71.9375 52.87060547 C71.14988281 52.86745331 70.36226563 52.86430115 69.55078125 52.86105347 C68.70902344 52.8630777 67.86726563 52.86510193 67 52.8671875 C66.12730469 52.86623077 65.25460937 52.86527405 64.35546875 52.86428833 C62.5130201 52.86360878 60.67056903 52.86544738 58.828125 52.86962891 C56.01036189 52.87498032 53.19275817 52.8696763 50.375 52.86328125 C48.58333298 52.86394207 46.79166606 52.86522332 45 52.8671875 C43.73736328 52.86415115 43.73736328 52.86415115 42.44921875 52.86105347 C41.26779297 52.86578171 41.26779297 52.86578171 40.0625 52.87060547 C39.02802734 52.87179886 39.02802734 52.87179886 37.97265625 52.87301636 C35.880782 53.00767429 34.01414107 53.43257236 32 54 C31.95035134 58.58982793 31.91416328 63.17949754 31.89013672 67.76953125 C31.88011443 69.32912929 31.86649295 70.8887087 31.84912109 72.44824219 C31.8247059 74.69731254 31.8134791 76.94613322 31.8046875 79.1953125 C31.79436493 79.8861795 31.78404236 80.57704651 31.77340698 81.28884888 C31.77242685 85.57260162 32.43394351 89.01712278 34 93 C37.3 93.66 40.6 94.32 44 95 C44.33 96.65 44.66 98.3 45 100 C43.05136075 101.94863925 40.1019128 101.1291874 37.50878906 101.13894653 C36.59838867 101.1369223 35.68798828 101.13489807 34.75 101.1328125 C33.82155273 101.13376923 32.89310547 101.13472595 31.93652344 101.13571167 C29.96940035 101.13639355 28.00227504 101.13453872 26.03515625 101.13037109 C23.01296974 101.12502295 19.99093185 101.13031582 16.96875 101.13671875 C15.06249967 101.13605797 13.15624943 101.13477681 11.25 101.1328125 C9.88439941 101.13584885 9.88439941 101.13584885 8.49121094 101.13894653 C2.11494969 101.11494969 2.11494969 101.11494969 1 100 C0.95936168 98.33382885 0.957279 96.66611905 1 95 C1.63808594 94.82984375 2.27617187 94.6596875 2.93359375 94.484375 C3.75988281 94.24203125 4.58617187 93.9996875 5.4375 93.75 C6.26121094 93.51796875 7.08492188 93.2859375 7.93359375 93.046875 C10.11674779 92.23039366 10.11674779 92.23039366 10.62106323 90.39402771 C11.13565735 87.14295077 11.1390452 83.93077206 11.12939453 80.64868164 C11.13114685 79.91485764 11.13289917 79.18103363 11.13470459 78.42497253 C11.13909956 76.00334292 11.13619309 73.58178658 11.1328125 71.16015625 C11.13348629 69.47391241 11.13445694 67.78766867 11.13571167 66.10142517 C11.13718551 62.56833979 11.1350444 59.0352797 11.13037109 55.50219727 C11.12467837 50.97841658 11.1279519 46.45469529 11.13394356 41.93091679 C11.13756134 38.44876154 11.1364049 34.96662032 11.13381577 31.48446465 C11.13314964 29.81673615 11.13396392 28.14900637 11.13629532 26.48127937 C11.13884132 24.14772305 11.13495361 21.81426213 11.12939453 19.48071289 C11.13243088 18.45111954 11.13243088 18.45111954 11.13552856 17.40072632 C11.11929009 13.71189626 10.73411663 10.67058316 10 7 C6.7 6.34 3.4 5.68 0 5 C0 3.35 0 1.7 0 0 Z " fill="#000000" transform="translate(327,171)"/>
<path d="M0 0 C1.47254494 -0.0099852 1.47254494 -0.0099852 2.97483826 -0.02017212 C5.05001969 -0.03027473 7.12523345 -0.03498988 9.20043945 -0.03466797 C12.33666356 -0.03901478 15.47144884 -0.0752874 18.60742188 -0.11328125 C44.74006428 -0.25914863 44.74006428 -0.25914863 54.80859375 8.3359375 C60.60511782 14.0763209 62.83662352 18.86503519 63.24609375 27.0859375 C63.1030572 34.29140364 60.93655853 39.82970721 56.12890625 45.21875 C52.66582878 48.40478127 49.44180337 50.20588637 44.80859375 51.3359375 C48.04976893 58.0905359 51.59271732 64.52030667 55.62109375 70.8359375 C56.14735352 71.66109863 56.67361328 72.48625977 57.21582031 73.33642578 C64.15145935 84.09196876 70.29446468 93.03420563 82.80859375 97.3359375 C82.31359375 99.3159375 82.31359375 99.3159375 81.80859375 101.3359375 C73.36685383 103.58706815 63.37195938 103.14619925 55.52734375 99.18359375 C44.87351061 92.5979195 38.91826166 82.71469028 32.84716797 72.12792969 C30.90316972 68.77368728 28.84287494 65.48896154 26.8046875 62.19140625 C25.80859375 60.3359375 25.80859375 60.3359375 25.80859375 58.3359375 C22.50859375 58.0059375 19.20859375 57.6759375 15.80859375 57.3359375 C15.75890269 61.49851897 15.72273733 65.66094011 15.69873047 69.82373047 C15.68871519 71.23782359 15.67509901 72.65189623 15.65771484 74.06591797 C15.63326816 76.10649696 15.62206591 78.14680053 15.61328125 80.1875 C15.60280762 81.41291504 15.59233398 82.63833008 15.58154297 83.90087891 C15.81342169 87.40897955 16.42436378 90.11007983 17.80859375 93.3359375 C19.9522357 94.48008342 19.9522357 94.48008342 22.43359375 94.7109375 C23.65949219 94.90816406 23.65949219 94.90816406 24.91015625 95.109375 C25.84988281 95.22152344 25.84988281 95.22152344 26.80859375 95.3359375 C27.93359375 99.0859375 27.93359375 99.0859375 26.80859375 101.3359375 C12.61859375 101.3359375 -1.57140625 101.3359375 -16.19140625 101.3359375 C-17.19140625 98.3359375 -17.19140625 98.3359375 -16.19140625 95.3359375 C-13.9098911 94.70193525 -11.66814925 94.45020067 -9.3203125 94.15625 C-7.00361661 93.52932497 -7.00361661 93.52932497 -6.0735321 91.25320435 C-5.00996239 87.73588687 -4.91878002 84.47614169 -4.94848633 80.83935547 C-4.94658798 80.10217285 -4.94468964 79.36499023 -4.94273376 78.60546875 C-4.93904235 76.17957779 -4.94970546 73.75398915 -4.9609375 71.328125 C-4.96213018 69.63851964 -4.96258228 67.94891362 -4.96232605 66.25930786 C-4.96388801 62.72377351 -4.97215689 59.18834082 -4.9855957 55.65283203 C-5.00261111 51.11878674 -5.00640912 46.58485282 -5.00565052 42.05077934 C-5.00592225 38.56441178 -5.01140348 35.0780686 -5.01865196 31.59170914 C-5.02183556 29.91953847 -5.02380532 28.24736503 -5.02454567 26.5751915 C-5.02671103 24.24132309 -5.03545877 21.90757341 -5.04614258 19.57373047 C-5.04568939 18.88171539 -5.04523621 18.18970032 -5.04476929 17.47671509 C-5.06485355 14.47996337 -5.23505444 12.20499294 -6.19140625 9.3359375 C-8.29725063 8.53030112 -8.29725063 8.53030112 -10.75390625 8.1484375 C-11.58019531 7.98988281 -12.40648437 7.83132812 -13.2578125 7.66796875 C-13.89589844 7.55839844 -14.53398438 7.44882813 -15.19140625 7.3359375 C-15.52140625 5.6859375 -15.85140625 4.0359375 -16.19140625 2.3359375 C-10.7468746 0.08027349 -5.79396189 0.01379998 0 0 Z M14.80859375 9.3359375 C14.62090722 12.2651678 14.55305734 15.09822147 14.578125 18.02734375 C14.57858322 18.88778793 14.57904144 19.74823212 14.57951355 20.63475037 C14.5825367 22.45467507 14.59042487 24.27459717 14.6027832 26.09448242 C14.62104227 28.89055474 14.6232929 31.68629616 14.62304688 34.48242188 C14.62796185 36.24739872 14.63379008 38.0123733 14.640625 39.77734375 C14.64173782 40.61898575 14.64285065 41.46062775 14.64399719 42.32777405 C14.3043908 46.14055135 14.3043908 46.14055135 15.80859375 49.3359375 C22.72755821 49.90342354 28.80544837 50.01133263 34.80859375 46.3359375 C39.90304283 41.24148842 41.83954934 36.68878982 42.18359375 29.5859375 C42.00868307 23.13367675 40.55851522 17.06372681 35.8671875 12.41015625 C31.25181532 8.84875488 27.64166873 7.19185116 21.74609375 7.1484375 C20.86824219 7.13425781 19.99039062 7.12007812 19.0859375 7.10546875 C16.6093432 7.11364314 16.6093432 7.11364314 14.80859375 9.3359375 Z " fill="#000000" transform="translate(1556.19140625,170.6640625)"/>
<path d="M0 0 C23.43 0 46.86 0 71 0 C73.33333333 16.33333333 73.33333333 16.33333333 73 22 C72 23 72 23 69.4375 23.0625 C68.633125 23.041875 67.82875 23.02125 67 23 C66.62488281 22.15695313 66.24976563 21.31390625 65.86328125 20.4453125 C65.35152344 19.34960938 64.83976562 18.25390625 64.3125 17.125 C63.81363281 16.03445312 63.31476563 14.94390625 62.80078125 13.8203125 C60.68469996 10.50618952 59.76923541 9.91726848 56 9 C46.53225564 7.64856825 46.53225564 7.64856825 31 8 C31 19.88 31 31.76 31 44 C34.403125 43.896875 37.80625 43.79375 41.3125 43.6875 C42.38153564 43.66260498 43.45057129 43.63770996 44.55200195 43.61206055 C45.81983521 43.56239136 45.81983521 43.56239136 47.11328125 43.51171875 C48.40939331 43.47244263 48.40939331 43.47244263 49.73168945 43.43237305 C52.44089406 42.91595917 53.31690156 42.14188695 55 40 C55.98628417 37.96922316 55.98628417 37.96922316 56.6875 35.8125 C57.06455078 34.73935547 57.06455078 34.73935547 57.44921875 33.64453125 C57.63097656 33.10183594 57.81273437 32.55914062 58 32 C59.66611905 31.957279 61.33382885 31.95936168 63 32 C64 33 64 33 64.11352539 36.05102539 C64.11336634 37.39991271 64.10767612 38.74880614 64.09765625 40.09765625 C64.0962413 40.80651474 64.09482635 41.51537323 64.09336853 42.24571228 C64.08775443 44.51801712 64.07519963 46.79022475 64.0625 49.0625 C64.05748681 50.59960796 64.05292359 52.13671745 64.04882812 53.67382812 C64.03778042 57.44925642 64.02050641 61.22461171 64 65 C59.25 66.125 59.25 66.125 57 65 C56.4375 63.00390625 56.4375 63.00390625 56 60.5625 C55.37748838 56.86159602 55.37748838 56.86159602 53 54 C47.85065381 53.16946029 42.89209331 52.95505326 37.6796875 52.9765625 C36.07843018 52.98163818 36.07843018 52.98163818 34.44482422 52.98681641 C33.63803223 52.99116699 32.83124023 52.99551758 32 53 C31.92574857 57.76884567 31.87135064 62.5373536 31.83520508 67.30664062 C31.82013435 68.92844506 31.79967407 70.55020884 31.77368164 72.171875 C31.73722171 74.50531046 31.72025686 76.83820631 31.70703125 79.171875 C31.69154739 79.89493835 31.67606354 80.61800171 31.66011047 81.36297607 C31.65905824 84.52257197 31.81157296 86.66741132 33.38427734 89.44335938 C37.95137166 93.84344903 47.56522886 92.30003621 53.52734375 92.19921875 C58.66931041 92.02213161 63.54851343 91.80961677 68 89 C70.4647519 86.21329978 72.19872197 83.23781129 74 80 C74.97960078 78.65160833 75.97386854 77.3133286 77 76 C78.65 76.33 80.3 76.66 82 77 C81.68773767 83.91661054 81.10157034 95.89842966 76 101 C73.53555943 101.09500548 71.09925374 101.12557985 68.63452148 101.11352539 C67.86384338 101.11367142 67.09316528 101.11381744 66.2991333 101.1139679 C63.73975861 101.1132686 61.1804558 101.10547545 58.62109375 101.09765625 C56.85132385 101.09579213 55.08155344 101.0943682 53.31178284 101.09336853 C48.64448634 101.08954288 43.97722077 101.0797122 39.30993652 101.06866455 C34.55102965 101.05845144 29.79211779 101.05387113 25.03320312 101.04882812 C15.68878847 101.03808997 6.3443968 101.02101299 -3 101 C-4.125 97.25 -4.125 97.25 -3 95 C-0.20050245 94.43380948 2.59918265 94.10518492 5.43359375 93.7578125 C8.04914657 93.26895665 8.04914657 93.26895665 9.14422607 91.42456055 C10.31674424 88.10260694 10.27866017 84.92770121 10.25878906 81.44921875 C10.2622937 80.69428131 10.26579834 79.93934387 10.26940918 79.16152954 C10.27819999 76.67009238 10.27238676 74.17893997 10.265625 71.6875 C10.26697241 69.95401963 10.26891358 68.22053963 10.27142334 66.48706055 C10.27437101 62.85559488 10.27008844 59.22422766 10.26074219 55.59277344 C10.24934785 50.93879866 10.25590923 46.28505457 10.26788712 41.63108826 C10.27511535 38.05202497 10.27281335 34.47301635 10.26763153 30.89395142 C10.2662977 29.17794772 10.26793342 27.46193906 10.27259064 25.74594116 C10.27767169 23.34742086 10.26992356 20.94927377 10.25878906 18.55078125 C10.26283752 17.84208893 10.26688599 17.13339661 10.27105713 16.40322876 C10.24006614 12.79825717 10.10303691 10.00563234 8 7 C6.06018382 6.09390008 6.06018382 6.09390008 3.875 5.75 C2.59625 5.5025 1.3175 5.255 0 5 C0 3.35 0 1.7 0 0 Z " fill="#000000" transform="translate(1187,171)"/>
<path d="M0 0 C14.19 0 28.38 0 43 0 C43 1.65 43 3.3 43 5 C42.37351562 5.09796875 41.74703125 5.1959375 41.1015625 5.296875 C40.28429688 5.44640625 39.46703125 5.5959375 38.625 5.75 C37.81289062 5.88921875 37.00078125 6.0284375 36.1640625 6.171875 C33.89245029 6.79844984 33.89245029 6.79844984 32.88191223 8.71398926 C31.83884381 11.41773407 31.73939576 13.50724575 31.7253418 16.40429688 C31.71580978 17.48642456 31.70627777 18.56855225 31.69645691 19.68347168 C31.69782402 21.43343445 31.69782402 21.43343445 31.69921875 23.21875 C31.69493362 24.42760864 31.6906485 25.63646729 31.68623352 26.88195801 C31.68048778 29.44408543 31.67999174 32.00622917 31.68432617 34.56835938 C31.68746555 38.45732167 31.6641006 42.3455079 31.63867188 46.234375 C31.63639663 48.72916571 31.63569643 51.22395846 31.63671875 53.71875 C31.627509 54.869198 31.61829926 56.019646 31.60881042 57.20495605 C31.67182288 68.40721595 33.19545285 79.43314825 41 88 C47.5782979 93.12594641 54.92203506 93.82850923 63 93 C66.17894386 91.9546074 69.03682854 90.53714519 72 89 C72.99 88.67 73.98 88.34 75 88 C76.12726939 86.17346058 76.12726939 86.17346058 77 84 C77.495 83.00613281 77.495 83.00613281 78 81.9921875 C78.33 81.29351562 78.66 80.59484375 79 79.875 C79.33 79.19179687 79.66 78.50859375 80 77.8046875 C82.68206234 70.28234077 83.30225565 62.7141884 83.265625 54.78515625 C83.26753845 53.84876816 83.2694519 52.91238007 83.27142334 51.94761658 C83.27277448 49.98208342 83.26915358 48.01654101 83.26074219 46.05102539 C83.25003962 43.07352265 83.26066808 40.0966248 83.2734375 37.11914062 C83.80075866 22.18015981 83.80075866 22.18015981 80 8 C77.65613191 7.08968728 77.65613191 7.08968728 74.9375 6.375 C73.55884766 5.98441406 73.55884766 5.98441406 72.15234375 5.5859375 C71.44207031 5.39257812 70.73179688 5.19921875 70 5 C70 3.35 70 1.7 70 0 C81.88 0 93.76 0 106 0 C106 1.65 106 3.3 106 5 C105.37351562 5.14695313 104.74703125 5.29390625 104.1015625 5.4453125 C103.28429688 5.66960937 102.46703125 5.89390625 101.625 6.125 C100.81289062 6.33382812 100.00078125 6.54265625 99.1640625 6.7578125 C96.78662729 7.84380137 96.78662729 7.84380137 95.88623047 10.43139648 C94.72366102 15.1127402 94.68294677 19.53358467 94.65625 24.33984375 C94.6416272 25.33899307 94.62700439 26.3381424 94.61193848 27.36756897 C94.56559926 30.55750519 94.53136316 33.74738362 94.5 36.9375 C94.0622431 80.79737414 94.0622431 80.79737414 83.3125 92.4375 C73.43194064 101.37086288 61.99877048 103.52981568 49.05078125 103.30859375 C38.35801552 102.68113903 27.38512542 100.25118491 20 92 C12.42312848 82.07281909 11.70753303 72.00417785 11.62109375 59.8984375 C11.60409927 58.66259918 11.5871048 57.42676086 11.56959534 56.1534729 C11.51674766 52.22736642 11.47629998 48.3012684 11.4375 44.375 C11.39343755 40.44164345 11.34663902 36.50836429 11.29469299 32.57510376 C11.26297016 30.13438784 11.23600944 27.69360406 11.21446228 25.2527771 C11.73943709 15.40635049 11.73943709 15.40635049 8 7 C6.03309626 6.32707499 6.03309626 6.32707499 3.875 5.875 C1.956875 5.441875 1.956875 5.441875 0 5 C0 3.35 0 1.7 0 0 Z " fill="#000000" transform="translate(1411,171)"/>
<path d="M0 0 C9.10959165 -0.02312545 18.21917326 -0.04091612 27.3287878 -0.05181217 C31.55831371 -0.05704056 35.7878196 -0.0641374 40.01733398 -0.07543945 C44.09568543 -0.08626991 48.17401757 -0.09227717 52.25238228 -0.09487724 C53.81177639 -0.09673121 55.3711694 -0.10035127 56.93055534 -0.10573006 C59.10729162 -0.11294262 61.28394714 -0.11399085 63.46069336 -0.11352539 C65.32267616 -0.11685631 65.32267616 -0.11685631 67.22227478 -0.12025452 C70 0 70 0 71 1 C71.53768609 4.47944134 71.80054281 7.99494836 72.125 11.5 C72.27388672 12.98306641 72.27388672 12.98306641 72.42578125 14.49609375 C72.51472656 15.43582031 72.60367188 16.37554687 72.6953125 17.34375 C72.77797363 18.21193359 72.86063477 19.08011719 72.94580078 19.97460938 C72.96368652 20.64298828 72.98157227 21.31136719 73 22 C72 23 72 23 69.4375 23.0625 C68.633125 23.041875 67.82875 23.02125 67 23 C66.62488281 22.24074219 66.24976563 21.48148438 65.86328125 20.69921875 C65.35152344 19.70535156 64.83976563 18.71148437 64.3125 17.6875 C63.56419922 16.20830078 63.56419922 16.20830078 62.80078125 14.69921875 C60.46298527 11.19506034 58.08219511 9.53274914 54 8.48828125 C42.35410792 7.23667649 42.35410792 7.23667649 31 9 C30.67 20.55 30.34 32.1 30 44 C37.92 43.67 45.84 43.34 54 43 C54.66 39.7 55.32 36.4 56 33 C56.33 32.67 56.66 32.34 57 32 C58.98 32 60.96 32 63 32 C63 42.89 63 53.78 63 65 C61.35 65.33 59.7 65.66 58 66 C55.68789868 63.68789868 55.53815111 62.58208523 54.9375 59.4375 C54.53522134 56.4322803 54.53522134 56.4322803 53 54 C47.68211656 53.20231748 42.54928383 52.94883229 37.171875 52.97265625 C36.01268555 52.976604 34.85349609 52.98055176 33.65917969 52.98461914 C32.78165039 52.98969482 31.90412109 52.99477051 31 53 C30.95032401 57.30499734 30.91415055 61.60983993 30.89013672 65.91503906 C30.88011895 67.37763376 30.86650088 68.84020863 30.84912109 70.30273438 C30.82468561 72.41281039 30.81347463 74.52262012 30.8046875 76.6328125 C30.79421387 77.90012207 30.78374023 79.16743164 30.77294922 80.47314453 C31.00276998 84.04302699 31.53452183 86.73997831 33 90 C38.138308 92.26843877 43.34511608 92.35331956 48.875 92.3125 C49.6693042 92.30686035 50.4636084 92.3012207 51.28198242 92.29541016 C58.68222099 92.14195074 64.35273174 91.58844007 69.8125 86.25 C72.06703476 82.9004055 74.08224789 79.5513928 76 76 C77.65 76.33 79.3 76.66 81 77 C82.01843074 80.15296213 81.95535405 82.0894138 81.0390625 85.2578125 C80.81476563 86.04800781 80.59046875 86.83820313 80.359375 87.65234375 C79.99585938 88.87630859 79.99585938 88.87630859 79.625 90.125 C79.39039063 90.94871094 79.15578125 91.77242188 78.9140625 92.62109375 C77.18071308 98.63857384 77.18071308 98.63857384 76 101 C49.93 101 23.86 101 -3 101 C-3.495 98.525 -3.495 98.525 -4 96 C-0.00999834 94.57499941 3.80530429 93.59924224 8 93 C9.77110438 88.42206524 10.24844745 84.62550693 10.24291992 79.72875977 C10.24481827 79.027117 10.24671661 78.32547424 10.24867249 77.60256958 C10.25235663 75.2987323 10.24170798 72.9952152 10.23046875 70.69140625 C10.22927524 69.08007341 10.22882415 67.46873987 10.2290802 65.85740662 C10.22751928 62.48586651 10.21926083 59.11443317 10.20581055 55.74291992 C10.18883512 51.43461767 10.18499614 47.12643271 10.18575573 42.81810093 C10.18548295 39.49198805 10.17998415 36.16590049 10.17275429 32.83979607 C10.16958588 31.25187305 10.16760451 29.66394719 10.16686058 28.07602119 C10.1646767 25.8508434 10.15588846 23.62578632 10.14526367 21.40063477 C10.14145187 20.13743912 10.13764008 18.87424347 10.13371277 17.57276917 C9.99944711 13.98522681 9.57243924 10.54183548 9 7 C7.081875 6.814375 7.081875 6.814375 5.125 6.625 C1.25 6.25 1.25 6.25 -1 4 C-0.625 1.875 -0.625 1.875 0 0 Z " fill="#000000" transform="translate(467,171)"/>
<path d="M0 0 C0.37584229 1.13800049 0.75168457 2.27600098 1.13891602 3.44848633 C8.0635768 24.39678343 15.03902945 45.32749022 22.26974487 66.17245483 C22.92101513 68.05104338 23.57038203 69.93029291 24.21780396 71.81021118 C25.12374047 74.43804467 26.03722974 77.06312349 26.953125 79.6875 C27.35068245 80.84550362 27.35068245 80.84550362 27.75627136 82.02690125 C30.12314744 89.31351027 30.12314744 89.31351027 35.48046875 94.36328125 C36.37378906 94.67652344 37.26710938 94.98976563 38.1875 95.3125 C39.08855469 95.63863281 39.98960937 95.96476562 40.91796875 96.30078125 C41.60503906 96.53152344 42.29210937 96.76226562 43 97 C42.67 98.65 42.34 100.3 42 102 C28.8 102 15.6 102 2 102 C1 99 1 99 2 96 C4.64 95.67 7.28 95.34 10 95 C8.54545941 88.69699079 6.57144753 82.70540963 4.375 76.625 C3.7341396 74.84737531 3.09597729 73.06877485 2.4609375 71.2890625 C2.18040527 70.51256348 1.89987305 69.73606445 1.61083984 68.93603516 C1 67 1 67 1 65 C-12.365 65.495 -12.365 65.495 -26 66 C-27.98 71.81625 -27.98 71.81625 -30 77.75 C-30.41765625 78.96655273 -30.8353125 80.18310547 -31.265625 81.43652344 C-31.59046875 82.40106445 -31.9153125 83.36560547 -32.25 84.359375 C-32.58515625 85.34389648 -32.9203125 86.32841797 -33.265625 87.34277344 C-34.17758868 90.18310505 -34.17758868 90.18310505 -34 94 C-31.03 94.99 -28.06 95.98 -25 97 C-25.33 98.65 -25.66 100.3 -26 102 C-36.89 102 -47.78 102 -59 102 C-60 98 -60 98 -59 96 C-56.55912656 95.42142259 -54.11445105 94.97727323 -51.640625 94.5625 C-44.59737094 90.39489405 -41.96564725 78.09697599 -39.19921875 70.765625 C-38.75914993 69.61116882 -38.31908112 68.45671265 -37.86567688 67.26727295 C-36.93805709 64.83095878 -36.01290159 62.39370506 -35.09008789 59.95556641 C-33.70657438 56.30039355 -32.31593573 52.64800092 -30.92382812 48.99609375 C-30.01526125 46.60690913 -29.1070553 44.21758722 -28.19921875 41.828125 C-27.53203072 40.07484642 -27.53203072 40.07484642 -26.85136414 38.28614807 C-24.74169791 32.71438438 -22.67976494 27.13414164 -20.73168945 21.50366211 C-20.37907547 20.49426575 -20.02646149 19.48486938 -19.66316223 18.44488525 C-19.01402777 16.57408268 -18.37744559 14.69885416 -17.75639343 12.81854248 C-15.57752111 6.55461208 -13.2508146 3.05661138 -7.39453125 -0.33984375 C-4.56126923 -1.12095514 -2.82774937 -0.65120186 0 0 Z M-13 27 C-14.42830852 30.80704999 -15.85236055 34.61566157 -17.27246094 38.42578125 C-17.75631411 39.72211806 -18.24133485 41.0180197 -18.72753906 42.31347656 C-19.42558589 44.17398505 -20.11910947 46.03618865 -20.8125 47.8984375 C-21.23144531 49.01911621 -21.65039062 50.13979492 -22.08203125 51.29443359 C-23.10709969 53.83948363 -23.10709969 53.83948363 -23 56 C-16.07 56 -9.14 56 -2 56 C-2.7141786 51.71492839 -3.43190039 48.38288463 -4.84765625 44.3828125 C-5.38422852 42.85527344 -5.38422852 42.85527344 -5.93164062 41.296875 C-6.49141602 39.72679687 -6.49141602 39.72679687 -7.0625 38.125 C-7.43955078 37.05507812 -7.81660156 35.98515625 -8.20507812 34.8828125 C-9.13233685 32.2536232 -10.06409807 29.62612238 -11 27 C-11.66 27 -12.32 27 -13 27 Z " fill="#000000" transform="translate(619,170)"/>
<path d="M0 0 C1.1768335 0.00652588 2.35366699 0.01305176 3.56616211 0.01977539 C22.56077555 0.31163778 22.56077555 0.31163778 30.6875 4.375 C31.1707983 7.26882315 31.53251897 10.0854434 31.8125 13 C31.89886719 13.79535156 31.98523437 14.59070313 32.07421875 15.41015625 C32.558417 20.09073931 32.77578671 24.6705798 32.6875 29.375 C27.9375 30.5 27.9375 30.5 25.6875 29.375 C25.00098179 27.81735364 24.38622148 26.22762694 23.8125 24.625 C20.79330964 16.93481585 17.50623888 13.94622178 10.125 10.390625 C2.02130448 7.0140852 -6.7608626 7.60102266 -14.96875 10.40625 C-23.82191981 14.06556019 -30.45844595 20.04789818 -34.625 28.75 C-40.46421974 43.51094605 -39.80845545 59.84690911 -34.09375 74.5 C-29.8094194 84.02073466 -23.58843588 90.26486645 -14.13671875 94.68359375 C-6.16326864 97.70565086 4.18064712 97.69496704 12.1875 94.8125 C20.10715266 91.04935379 24.24609519 85.01537459 28.23046875 77.4140625 C29.6875 75.375 29.6875 75.375 31.73828125 74.5234375 C33.6875 74.375 33.6875 74.375 35.6875 75.375 C35.47381388 83.80588873 33.62279089 91.88109594 29.6875 99.375 C27.23472085 101.62792307 24.92502578 101.89610559 21.6875 102.375 C20.07681641 102.7771875 20.07681641 102.7771875 18.43359375 103.1875 C-0.19859501 107.61338577 -20.16639916 106.50314002 -37.3125 97.375 C-40.53965633 95.26396503 -43.43421273 92.93656454 -46.3125 90.375 C-46.93898438 89.85292969 -47.56546875 89.33085937 -48.2109375 88.79296875 C-55.964367 81.83519686 -60.55063622 71.38348784 -61.53149414 61.07299805 C-62.35146967 44.26435554 -59.75738485 30.2639375 -48.421875 17.1953125 C-43.98370115 12.84183663 -38.98568763 9.88569993 -33.5 7.0625 C-32.55942749 6.57390503 -32.55942749 6.57390503 -31.59985352 6.07543945 C-21.44106343 1.13918925 -11.1867305 -0.13512669 0 0 Z " fill="#000000" transform="translate(1352.3125,168.625)"/>
<path d="M0 0 C13.53 0 27.06 0 41 0 C41.495 1.98 41.495 1.98 42 4 C39.4345406 6.5654594 37.52313332 6.54046087 34 7 C36.80419338 15.2677675 40.25231615 23.08805376 44.0625 30.9375 C44.59166016 32.04673828 45.12082031 33.15597656 45.66601562 34.29882812 C48.84927345 40.94238744 48.84927345 40.94238744 53 47 C64.07269734 27.48054534 64.07269734 27.48054534 73 7 C71.329375 6.8453125 71.329375 6.8453125 69.625 6.6875 C68.42875 6.460625 67.2325 6.23375 66 6 C65.01 4.515 65.01 4.515 64 3 C64.33 2.01 64.66 1.02 65 0 C75.89 0 86.78 0 98 0 C98.495 1.98 98.495 1.98 99 4 C96.54820166 6.45179834 94.51104664 6.59489562 91.16796875 7.14453125 C80.82021689 11.2276982 74.47482783 28.58314781 69.25 37.75 C68.69505859 38.7198584 68.14011719 39.6897168 67.56835938 40.68896484 C61.11398243 52.10899757 57.82123102 60.6548579 57.8125 73.8125 C57.79413086 75.25206055 57.79413086 75.25206055 57.77539062 76.72070312 C57.76354361 82.50599537 58.33948337 87.45400571 60 93 C65.94 93.99 65.94 93.99 72 95 C72 96.98 72 98.96 72 101 C56.49 101 40.98 101 25 101 C24.67 99.35 24.34 97.7 24 96 C27.09583787 94.96805404 30.1558976 93.9588195 33.3125 93.125 C34.6428125 92.568125 34.6428125 92.568125 36 92 C37.95538886 86.87286077 37.2675819 80.77116052 37.3125 75.375 C37.34150391 74.23675781 37.37050781 73.09851563 37.40039062 71.92578125 C37.41295898 70.24162109 37.41295898 70.24162109 37.42578125 68.5234375 C37.44036377 67.51200684 37.45494629 66.50057617 37.4699707 65.45849609 C36.35344651 57.24203804 31.98955107 49.69791406 28.26953125 42.37890625 C27.83364182 41.51232895 27.39775238 40.64575165 26.94865417 39.75291443 C25.57379222 37.02081201 24.19353947 34.29148424 22.8125 31.5625 C21.42149731 28.80815592 20.03169575 26.05322176 18.64421082 23.29710388 C17.78502851 21.59095836 16.92370966 19.88588669 16.06001282 18.18202209 C15.67258408 17.41369553 15.28515533 16.64536896 14.88598633 15.85375977 C14.54497391 15.17998795 14.20396149 14.50621613 13.85261536 13.81202698 C13 12 13 12 12 9 C9.50161648 8.08000207 9.50161648 8.08000207 6.5625 7.5 C1.21984733 6.32977099 1.21984733 6.32977099 -1 3 C-0.67 2.01 -0.34 1.02 0 0 Z " fill="#000000" transform="translate(1837,171)"/>
<path d="M0 0 C0.93239502 0.00491455 1.86479004 0.0098291 2.82543945 0.01489258 C16.83179817 0.25307518 16.83179817 0.25307518 21.8125 3.3125 C24.55327862 8.53683207 24.93886492 13.81329208 24.875 19.625 C24.86597656 20.69363281 24.85695313 21.76226562 24.84765625 22.86328125 C24.83605469 23.67152344 24.82445312 24.47976562 24.8125 25.3125 C20.0625 26.4375 20.0625 26.4375 17.8125 25.3125 C16.8828125 23.421875 16.8828125 23.421875 15.9375 21.0625 C13.6520494 15.78838323 11.71495655 12.37348539 6.5625 9.5 C0.65184046 7.62829115 -3.83919241 7.46967516 -9.5 9.875 C-12.48310041 11.55446204 -13.29989201 12.48619675 -15.25 15.5 C-16.71259628 21.44789153 -16.50098154 25.94517863 -13.5078125 31.33984375 C-10.96056277 34.60323945 -8.68821004 36.2343216 -5.125 38.3125 C-4.55716797 38.64862305 -3.98933594 38.98474609 -3.40429688 39.33105469 C0.28632785 41.49729094 4.04329729 43.53725675 7.8125 45.5625 C16.28772096 50.16753335 22.27935549 56.11758223 25.99609375 65.20703125 C28.10926691 73.24517796 27.94198852 82.01224286 24.00390625 89.421875 C19.00559 97.35362931 13.12066142 101.57946532 4.1875 104.125 C-8.10892833 106.83516997 -20.72967881 105.9415377 -32.25 100.6875 C-36.36917047 97.35710686 -37.30896993 94.4571721 -38.1875 89.3125 C-38.69044094 84.31296824 -38.99561124 79.33469202 -39.1875 74.3125 C-36.2175 73.8175 -36.2175 73.8175 -33.1875 73.3125 C-31.69197108 75.78012271 -30.22171401 78.25046252 -28.828125 80.77734375 C-24.99707789 87.58928988 -20.6349806 93.31731758 -13.1875 96.3125 C-7.61874009 96.97951024 -2.73224492 97.04422128 2.375 94.625 C6.71038515 90.5119423 7.9932369 87.84859021 8.1875 81.875 C7.95804078 75.28246011 6.26457652 71.48782361 1.5 66.9375 C-2.06881249 63.9394351 -5.92051349 61.71514573 -10 59.5 C-20.23102492 53.88253645 -29.48778756 46.80675224 -33.1875 35.3125 C-35.16692645 27.29457009 -33.91662542 20.29119207 -29.96484375 13.08203125 C-23.0069416 2.75177541 -11.82528382 -0.07245756 0 0 Z " fill="#000000" transform="translate(1132.1875,168.6875)"/>
<path d="M0 0 C1.9375 0.1875 1.9375 0.1875 4 1 C4.58238937 1.75562729 4.58238937 1.75562729 5.17654419 2.52651978 C7.94519768 4.76378604 10.83079488 4.41808128 14.23779297 4.38818359 C14.97147095 4.39344055 15.70514893 4.39869751 16.46105957 4.40411377 C18.88831834 4.41732554 21.31492195 4.40857008 23.7421875 4.3984375 C25.42986171 4.40045834 27.11753508 4.40336986 28.8052063 4.40713501 C32.3443431 4.41156031 35.88325286 4.40512242 39.42236328 4.39111328 C43.95418379 4.37404734 48.48547027 4.38384463 53.01727104 4.40183067 C56.50375368 4.41268539 59.99011034 4.40921399 63.47659683 4.4014473 C65.14711699 4.39944859 66.81764865 4.40189299 68.48815536 4.40888596 C70.82688295 4.41652542 73.16475397 4.40486095 75.50341797 4.38818359 C76.19138458 4.39425629 76.8793512 4.40032898 77.58816528 4.40658569 C81.93289814 4.34933745 84.45326616 3.45868052 88 1 C88.99 0.67 89.98 0.34 91 0 C91.99 0.495 91.99 0.495 93 1 C92.34 9.58 91.68 18.16 91 27 C86 28 86 28 84 27 C83.50165348 25.39261641 83.07439719 23.76278564 82.6875 22.125 C81.53927155 18.097456 81.53927155 18.097456 78.875 14.9375 C72.54126896 12.87215292 66.27876657 12.96119589 59.68359375 12.98046875 C58.4298999 12.98328857 57.17620605 12.9861084 55.88452148 12.98901367 C54.93262939 12.99263916 53.9807373 12.99626465 53 13 C53.08435133 23.49212942 53.17921447 33.98410596 53.28752708 44.476017 C53.33748919 49.34775185 53.3838193 54.21946503 53.421875 59.09130859 C53.4587288 63.79223401 53.50508912 68.49297805 53.55806351 73.19374847 C53.57660693 74.98786998 53.59171509 76.78203037 53.60334396 78.57621002 C53.62020728 81.08777978 53.64924239 83.5989342 53.68115234 86.11035156 C53.68331253 86.85338028 53.68547272 87.596409 53.68769836 88.36195374 C53.77063915 93.5007395 53.77063915 93.5007395 56 98 C58.63571568 98.91956802 58.63571568 98.91956802 61.625 99.25 C62.62789062 99.39953125 63.63078125 99.5490625 64.6640625 99.703125 C65.43492188 99.80109375 66.20578125 99.8990625 67 100 C67.042721 101.66611905 67.04063832 103.33382885 67 105 C66 106 66 106 64.09544373 106.12025452 C63.26271439 106.11803391 62.42998505 106.11581329 61.57202148 106.11352539 C60.63112167 106.11344986 59.69022186 106.11337433 58.72080994 106.11329651 C57.69790359 106.10813522 56.67499725 106.10297394 55.62109375 106.09765625 C54.57929459 106.0962413 53.53749542 106.09482635 52.46412659 106.09336853 C49.12188906 106.0877508 45.77971743 106.0751953 42.4375 106.0625 C40.17773534 106.05748728 37.91796963 106.05292398 35.65820312 106.04882812 C30.10544609 106.03777561 24.55272775 106.02102024 19 106 C18.67 104.35 18.34 102.7 18 101 C21.25434339 99.88876079 24.49876638 98.86099953 27.8125 97.9375 C30.83456324 97.32505414 30.83456324 97.32505414 32 96 C32.82414204 90.6945531 33.12260894 85.58449421 33.11352539 80.20703125 C33.11367142 79.47434525 33.11381744 78.74165924 33.1139679 77.98677063 C33.11327823 75.59531563 33.10553076 73.20394118 33.09765625 70.8125 C33.0957887 69.1424158 33.09436639 67.47233104 33.09336853 65.80224609 C33.08956988 61.42932596 33.07976254 57.0564396 33.06866455 52.68353271 C33.05839311 48.21220354 33.05385868 43.74086885 33.04882812 39.26953125 C33.03813764 30.51300542 33.02109345 21.75650692 33 13 C30.79300167 12.981279 28.58595656 12.9680315 26.37890625 12.95703125 C24.53534546 12.94506714 24.53534546 12.94506714 22.65454102 12.93286133 C16.23347312 13.0508247 10.31697709 13.27459153 5.0625 17.1875 C2.73646395 20.35936735 0.84009962 23.52425627 -1 27 C-2.98 26.67 -4.96 26.34 -7 26 C-6.31219038 20.64643031 -5.28852855 15.44255918 -4.0625 10.1875 C-3.89298828 9.42501953 -3.72347656 8.66253906 -3.54882812 7.87695312 C-2.2374262 2.2374262 -2.2374262 2.2374262 0 0 Z " fill="#000000" transform="translate(1729,166)"/>
<path d="M0 0 C2.43019495 0.32402599 3.64788577 0.54467058 5.17669678 2.5216217 C7.9551896 4.7744908 10.8737935 4.42612862 14.29785156 4.40405273 C15.03807053 4.41091599 15.77828949 4.41777924 16.54093933 4.42485046 C18.99102914 4.44316866 21.4404813 4.43927238 23.890625 4.43359375 C25.59592904 4.43815479 27.30123124 4.44346013 29.00653076 4.44947815 C32.58434503 4.4584203 36.16193626 4.45597557 39.73974609 4.44604492 C44.31407534 4.43458298 48.88762945 4.45471797 53.46185684 4.48396206 C56.98617411 4.50235859 60.51030708 4.50202425 64.03466034 4.49632454 C65.72028436 4.49617159 67.40592108 4.50219418 69.09149933 4.51461601 C71.45634131 4.52958134 73.81977092 4.51880814 76.18457031 4.50170898 C77.21976051 4.51621094 77.21976051 4.51621094 78.27586365 4.53100586 C83.65199581 4.45006361 86.54580124 2.70691667 91 0 C91.99 0.495 91.99 0.495 93 1 C92.44944191 9.68007546 91.84592214 18.34279687 91 27 C88.625 27.625 88.625 27.625 86 28 C83.75639253 25.75639253 83.49166766 24.56702825 82.6875 21.5625 C81.70315642 18.5415835 81.22557324 17.21230422 78.875 15 C72.58159249 12.81098869 66.27042798 12.96122026 59.68359375 12.98046875 C58.4298999 12.98328857 57.17620605 12.9861084 55.88452148 12.98901367 C54.93262939 12.99263916 53.9807373 12.99626465 53 13 C53.0844018 23.344476 53.1792847 33.68879778 53.28752708 44.0330534 C53.33746022 48.836378 53.38379059 53.63968092 53.421875 58.44311523 C53.45876539 63.07920756 53.50513568 67.71511724 53.55806351 72.35105324 C53.57658748 74.11922818 53.59170282 75.88744224 53.60334396 77.65567589 C53.62024059 80.13351495 53.64928372 82.61093755 53.68115234 85.08862305 C53.68331253 85.81870575 53.68547272 86.54878845 53.68769836 87.30099487 C53.75281071 91.26720925 54.06038469 94.49749807 56 98 C58.62366283 99.03770677 58.62366283 99.03770677 61.625 99.3125 C62.62789062 99.45300781 63.63078125 99.59351563 64.6640625 99.73828125 C65.82035156 99.86783203 65.82035156 99.86783203 67 100 C68.125 103.75 68.125 103.75 67 106 C51.16 106 35.32 106 19 106 C18 102 18 102 19 100 C21.94140625 99.3671875 21.94140625 99.3671875 25.5625 98.875 C26.76003906 98.70742188 27.95757813 98.53984375 29.19140625 98.3671875 C30.11824219 98.24601562 31.04507813 98.12484375 32 98 C32.90805051 93.36496523 33.14288616 88.88152737 33.12939453 84.17456055 C33.13114685 83.41451218 33.13289917 82.65446381 33.13470459 81.87138367 C33.13908174 79.37647168 33.13620123 76.88163137 33.1328125 74.38671875 C33.13348638 72.64891038 33.13445711 70.91110211 33.13571167 69.17329407 C33.13718273 65.54122007 33.1350518 61.90917073 33.13037109 58.27709961 C33.12465286 53.61173655 33.12796973 48.94643075 33.13394356 44.28106976 C33.13754704 40.69785628 33.13641194 37.11465652 33.13381577 33.53144264 C33.133147 31.81016852 33.13397316 30.08889316 33.13629532 28.36762047 C33.13882064 25.97120198 33.13498398 23.57487819 33.12939453 21.1784668 C33.13141876 20.46213074 33.13344299 19.74579468 33.13552856 19.00775146 C33.40476417 15.72203791 33.40476417 15.72203791 32 13 C23.37748322 12.44077191 13.86205356 12.1908135 6.1875 16.625 C3.26948451 19.7931311 1.12851716 23.26830182 -1 27 C-2.65 26.67 -4.3 26.34 -6 26 C-7.15870834 22.52387498 -6.78361107 21.39272416 -5.8203125 17.9296875 C-5.55089844 16.95128906 -5.28148437 15.97289062 -5.00390625 14.96484375 C-4.71386719 13.94519531 -4.42382812 12.92554688 -4.125 11.875 C-3.84269531 10.84761719 -3.56039062 9.82023438 -3.26953125 8.76171875 C-1.14709249 1.14709249 -1.14709249 1.14709249 0 0 Z " fill="#000000" transform="translate(785,166)"/>
<path d="M0 0 C14.52 0 29.04 0 44 0 C44.495 1.485 44.495 1.485 45 3 C42.94448501 5.66007822 41.81492427 6.0454572 38.4375 6.875 C34.90730655 7.60116704 34.90730655 7.60116704 33.80232239 10.13442993 C32.85396577 13.52157501 32.73853498 16.4546402 32.7253418 19.97412109 C32.72023087 20.65611069 32.71511993 21.33810028 32.70985413 22.04075623 C32.69600606 24.28507374 32.69691142 26.52908245 32.69921875 28.7734375 C32.69532881 30.34136061 32.69099353 31.90928266 32.68623352 33.47720337 C32.67878133 36.76055316 32.67905503 40.04379541 32.68432617 43.32714844 C32.69011553 47.52240065 32.67319814 51.71721061 32.6499815 55.91238976 C32.63520567 59.15016224 32.63437774 62.3878292 32.63749123 65.62562943 C32.63697982 67.17169698 32.63177606 68.71777072 32.62167931 70.26380539 C32.6092587 72.43185384 32.61613946 74.59905365 32.62768555 76.76708984 C32.62705612 77.99777191 32.6264267 79.22845398 32.6257782 80.49642944 C33.06930631 84.64886529 34.08512919 87.30195379 36 91 C38.16176593 92.10569583 38.16176593 92.10569583 41 92 C41.68288086 92.03416016 42.36576172 92.06832031 43.06933594 92.10351562 C45.50629812 92.20773791 47.93593935 92.23489746 50.375 92.25 C51.6125 92.2809375 51.6125 92.2809375 52.875 92.3125 C58.36527895 92.34735891 62.14042604 91.5988701 67 89 C70.68167563 85.21003979 73.27063395 80.50792835 76 76 C77.65 76.33 79.3 76.66 81 77 C80.6284455 85.39713167 78.77902488 93.44195024 75 101 C50.25 101 25.5 101 0 101 C-0.495 98.525 -0.495 98.525 -1 96 C1.72833495 94.87656796 4.32144635 93.9180627 7.1875 93.1875 C10.12815583 92.28969967 10.12815583 92.28969967 11.15960693 89.87413025 C12.17172444 86.41270529 12.25425957 83.43488734 12.25878906 79.82641602 C12.2622937 79.12331299 12.26579834 78.42020996 12.26940918 77.69580078 C12.2781799 75.38173418 12.27239332 73.06797573 12.265625 70.75390625 C12.26697314 69.13874758 12.26891492 67.5235893 12.27142334 65.90843201 C12.27436842 62.52672453 12.27009738 59.14512288 12.26074219 55.76342773 C12.24935714 51.43812652 12.25590497 47.11307379 12.26788712 42.78778172 C12.27513018 39.45312138 12.2728064 36.11851949 12.26763153 32.78385735 C12.26630132 31.18952339 12.26792063 29.59518407 12.27259064 28.0008564 C12.27769519 25.76808846 12.26989055 23.53571709 12.25878906 21.30297852 C12.25719788 20.03454605 12.25560669 18.76611359 12.25396729 17.45924377 C11.99632669 13.94996649 11.39479195 11.22570582 10 8 C7.66284965 6.74851386 7.66284965 6.74851386 4.9375 6.3125 C2.21484375 5.73828125 2.21484375 5.73828125 0 5 C-0.33 4.01 -0.66 3.02 -1 2 C-0.67 1.34 -0.34 0.68 0 0 Z " fill="#000000" transform="translate(680,171)"/>
<path d="M0 0 C14.52 0 29.04 0 44 0 C44 1.65 44 3.3 44 5 C43.28972656 5.18175781 42.57945313 5.36351562 41.84765625 5.55078125 C40.92855469 5.80214844 40.00945312 6.05351562 39.0625 6.3125 C38.14597656 6.55613281 37.22945312 6.79976562 36.28515625 7.05078125 C35.53105469 7.36402344 34.77695313 7.67726562 34 8 C32.80847808 11.57456576 32.8524052 14.824823 32.85473633 18.54492188 C32.85137772 19.31107315 32.8480191 20.07722443 32.84455872 20.86659241 C32.83505495 23.4006614 32.83310604 25.9346643 32.83203125 28.46875 C32.82881881 30.22847521 32.82545475 31.98820016 32.82194519 33.7479248 C32.81595575 37.43661112 32.81410516 41.12527401 32.81469727 44.81396484 C32.814799 49.54539814 32.80113419 54.27668175 32.78392506 59.00807953 C32.77281989 62.64199517 32.77077758 66.27587442 32.77130699 69.9098053 C32.77012512 71.65455136 32.76569177 73.39929831 32.75797462 75.14402771 C32.74820247 77.58115209 32.75104143 80.01794873 32.75708008 82.45507812 C32.75146057 83.17828751 32.74584106 83.90149689 32.74005127 84.6466217 C32.7632785 88.32636762 32.90026612 89.85039918 35 93 C37.18505129 93.79437923 37.18505129 93.79437923 39.625 94.1875 C40.44226562 94.34605469 41.25953125 94.50460937 42.1015625 94.66796875 C43.04128906 94.83232422 43.04128906 94.83232422 44 95 C44.042721 96.66611905 44.04063832 98.33382885 44 100 C43 101 43 101 39.03100586 101.11352539 C37.25894393 101.1133662 35.4868774 101.10766785 33.71484375 101.09765625 C32.78402481 101.0962413 31.85320587 101.09482635 30.8941803 101.09336853 C27.90858809 101.08775172 24.92306971 101.0751964 21.9375 101.0625 C19.91862087 101.05748716 17.89974057 101.05292388 15.88085938 101.04882812 C10.92054428 101.03777683 5.96028468 101.02050095 1 101 C0.505 98.525 0.505 98.525 0 96 C2.60316291 94.88435875 4.95549279 94.00809222 7.75 93.5 C8.4925 93.335 9.235 93.17 10 93 C13.71738132 85.56523736 12.14620441 74.25194903 12.1328125 66.15234375 C12.13376923 64.85986221 12.13472595 63.56738068 12.13571167 62.23573303 C12.13717414 59.51871526 12.13508096 56.80173067 12.13037109 54.0847168 C12.12466897 50.6299396 12.12796517 47.17524004 12.13394356 43.72046566 C12.13845741 40.38525239 12.13528314 37.05005921 12.1328125 33.71484375 C12.13584885 31.87538429 12.13584885 31.87538429 12.13894653 29.99876404 C12.94374039 18.56559587 12.94374039 18.56559587 9.5852356 8.27500916 C7.68654658 6.74788859 6.18493681 6.31810129 3.8125 5.8125 C1.9253125 5.4103125 1.9253125 5.4103125 0 5 C0 3.35 0 1.7 0 0 Z " fill="#000000" transform="translate(1655,171)"/>
<path d="M0 0 C2.31 0 4.62 0 7 0 C10.15730786 7.72299603 13.30604878 15.44944813 16.44677734 23.17919922 C17.46357876 25.68155044 18.48245967 28.18302185 19.50244141 30.68408203 C20.90271945 34.12061537 22.29601535 37.55989838 23.6875 41 C24.1211084 42.06081787 24.5547168 43.12163574 25.00146484 44.21459961 C25.39672363 45.19565674 25.79198242 46.17671387 26.19921875 47.1875 C26.54815186 48.04730469 26.89708496 48.90710938 27.2565918 49.79296875 C28 52 28 52 28 55 C28.66 55 29.32 55 30 55 C30.17083603 54.3948204 30.34167206 53.78964081 30.51768494 53.16612244 C32.32534132 46.93378736 34.49011818 40.94663365 36.94140625 34.94140625 C37.49392311 33.57495216 37.49392311 33.57495216 38.05760193 32.18089294 C38.82943873 30.27506764 39.60347579 28.37013203 40.37963867 26.46606445 C41.56835144 23.54813648 42.74850746 20.62685069 43.92773438 17.70507812 C44.68178949 15.84615038 45.43632941 13.98741921 46.19140625 12.12890625 C46.54352676 11.25706192 46.89564728 10.38521759 47.25843811 9.48695374 C47.75421608 8.27440163 47.75421608 8.27440163 48.26000977 7.03735352 C48.5485231 6.32805191 48.83703644 5.61875031 49.1342926 4.88795471 C50 3 50 3 52 0 C54.31 0 56.62 0 59 0 C59 21.45 59 42.9 59 65 C57.02 65 55.04 65 53 65 C52.67 48.83 52.34 32.66 52 16 C49.96005859 21.18009766 49.96005859 21.18009766 47.87890625 26.46484375 C46.56564875 29.79443694 45.25149665 33.12367569 43.93725586 36.45288086 C43.02160422 38.77380004 42.10688878 41.09508879 41.19311523 43.41674805 C39.88248433 46.74624781 38.56853523 50.07442092 37.25390625 53.40234375 C36.84346573 54.44712387 36.43302521 55.49190399 36.01014709 56.56834412 C35.62982834 57.52926468 35.24950958 58.49018524 34.85766602 59.48022461 C34.52235367 60.33071884 34.18704132 61.18121307 33.84156799 62.05747986 C33 64 33 64 32 65 C30.00041636 65.04080783 27.99954746 65.04254356 26 65 C21.47220417 55.43838389 17.58771599 45.64075088 13.6875 35.8125 C11.480625 30.264375 9.27375 24.71625 7 19 C6.67 34.18 6.34 49.36 6 65 C4.02 65 2.04 65 0 65 C0 43.55 0 22.1 0 0 Z " fill="#000000" transform="translate(1445,316)"/>
<path d="M0 0 C10.56452115 0.01309806 20.56608622 0.42855787 29.00390625 7.515625 C36.74049749 15.4855705 38.08699884 24.717704 38.05541992 35.39355469 C37.8854617 43.27123899 36.1788819 50.15904515 31.5 56.625 C24.99779429 62.69372533 18.42835819 65.39088656 9.609375 65.34765625 C8.44921875 65.34443359 7.2890625 65.34121094 6.09375 65.33789062 C4.8871875 65.32951172 3.680625 65.32113281 2.4375 65.3125 C1.21546875 65.30798828 -0.0065625 65.30347656 -1.265625 65.29882812 C-4.28129946 65.28704815 -7.29687498 65.27059853 -10.3125 65.25 C-10.33562684 56.92271053 -10.35341683 48.59543437 -10.36431217 40.26812077 C-10.36954026 36.40179882 -10.37663654 32.53549879 -10.38793945 28.66918945 C-10.398771 24.94096599 -10.4047774 21.21276366 -10.40737724 17.48452568 C-10.40923101 16.05910344 -10.41285071 14.63368241 -10.41823006 13.20826912 C-10.42544393 11.21836592 -10.42590808 9.22844166 -10.42602539 7.23852539 C-10.428246 6.10379288 -10.43046661 4.96906036 -10.43275452 3.79994202 C-10.17102671 -1.74987636 -4.41568572 0.01346729 0 0 Z M-4.3125 6.25 C-4.3125 24.07 -4.3125 41.89 -4.3125 60.25 C10.80663578 61.29914471 10.80663578 61.29914471 23.671875 55.5859375 C30.04144345 48.97948428 31.8097927 42.39780897 32.125 33.375 C31.92143037 25.82663812 30.85742112 18.98646021 25.8515625 13.0859375 C16.67529453 4.5425156 8.96934206 6.25 -4.3125 6.25 Z " fill="#000000" transform="translate(1259.3125,315.75)"/>
<path d="M0 0 C7.96196927 4.33835904 11.53862787 10.71073209 14.87109375 19.01953125 C17.78412925 29.75915611 16.77551961 42.66028008 11.58203125 52.44921875 C7.65166687 58.8597061 3.40756554 62.69335433 -3.62890625 65.33203125 C-10.71229897 66.72341196 -16.64724982 66.1824014 -23.12890625 63.01953125 C-30.81607998 57.64122595 -35.34410719 51.32298214 -37.5859375 42.20703125 C-39.55766259 30.63201204 -38.63346462 19.61455879 -32.5859375 9.41796875 C-25.09060809 -1.11322634 -12.12529033 -5.34293477 0 0 Z M-25.81640625 10.83203125 C-32.10823501 19.50455197 -33.05762895 28.99271359 -31.85546875 39.3828125 C-30.29516738 47.90559074 -26.11661146 54.0066123 -19.12890625 59.01953125 C-13.76511492 60.80746169 -8.24118287 60.71008322 -2.87890625 58.95703125 C3.66198229 54.34867796 7.59827938 48.45140102 9.42578125 40.65234375 C11.05291156 31.03229262 9.75926982 21.95993611 5.87109375 13.01953125 C2.8694319 8.81720466 -0.15632036 5.67705988 -5.12890625 4.01953125 C-14.26570644 2.80537928 -19.39379484 4.11069372 -25.81640625 10.83203125 Z " fill="#000000" transform="translate(468.12890625,316.98046875)"/>
<path d="M0 0 C1.60279192 0.00015914 3.20558896 0.00585476 4.80834961 0.01586914 C5.65038437 0.01728409 6.49241913 0.01869904 7.35997009 0.02015686 C10.06024671 0.02577276 12.76044163 0.03832791 15.46069336 0.05102539 C17.28686404 0.05603834 19.11303602 0.06060161 20.93920898 0.06469727 C25.42556878 0.07574735 29.9118672 0.0930226 34.39819336 0.11352539 C34.39819336 2.09352539 34.39819336 4.07352539 34.39819336 6.11352539 C23.83819336 6.11352539 13.27819336 6.11352539 2.39819336 6.11352539 C2.39819336 13.37352539 2.39819336 20.63352539 2.39819336 28.11352539 C4.0469043 28.10192383 5.69561523 28.09032227 7.39428711 28.07836914 C9.5414214 28.06899301 11.68855691 28.05989262 13.83569336 28.05102539 C14.92430664 28.04264648 16.01291992 28.03426758 17.13452148 28.02563477 C18.16899414 28.02241211 19.2034668 28.01918945 20.26928711 28.01586914 C21.22762451 28.01063232 22.18596191 28.00539551 23.17333984 28 C25.39819336 28.11352539 25.39819336 28.11352539 26.39819336 29.11352539 C26.39819336 30.76352539 26.39819336 32.41352539 26.39819336 34.11352539 C18.47819336 34.11352539 10.55819336 34.11352539 2.39819336 34.11352539 C2.39819336 42.69352539 2.39819336 51.27352539 2.39819336 60.11352539 C13.61819336 60.11352539 24.83819336 60.11352539 36.39819336 60.11352539 C36.39819336 61.76352539 36.39819336 63.41352539 36.39819336 65.11352539 C22.86819336 65.11352539 9.33819336 65.11352539 -4.60180664 65.11352539 C-4.64191545 49.18141502 -4.64191545 49.18141502 -4.65063477 42.41235352 C-4.65662243 37.78579569 -4.66372069 33.15925757 -4.67724609 28.53271484 C-4.68807764 24.80449138 -4.69408404 21.07628905 -4.69668388 17.34805107 C-4.69853765 15.92262883 -4.70215735 14.4972078 -4.7075367 13.07179451 C-4.71475057 11.08189131 -4.71521472 9.09196705 -4.71533203 7.10205078 C-4.71755264 5.96731827 -4.71977325 4.83258575 -4.72206116 3.66346741 C-4.5336139 -0.33247056 -4.15903382 0.13108864 0 0 Z " fill="#000000" transform="translate(1355.601806640625,315.886474609375)"/>
<path d="M0 0 C2.31 0 4.62 0 7 0 C10.35142562 7.82726459 13.40370777 15.69898277 16.171875 23.75 C16.53976135 24.81114014 16.90764771 25.87228027 17.28668213 26.96557617 C18.05471288 29.18330534 18.82095331 31.40165529 19.58544922 33.62060547 C20.75713159 37.02069507 21.93475839 40.41868233 23.11328125 43.81640625 C23.86232454 45.98165139 24.61103456 48.14701185 25.359375 50.3125 C25.71038269 51.32602539 26.06139038 52.33955078 26.42303467 53.38378906 C26.74717346 54.32577148 27.07131226 55.26775391 27.40527344 56.23828125 C27.68997498 57.06368408 27.97467651 57.88908691 28.26800537 58.73950195 C28.93942372 60.81293227 29.50127999 62.87920436 30 65 C27.69 65 25.38 65 23 65 C20.69 58.4 18.38 51.8 16 45 C7.75 44.67 -0.5 44.34 -9 44 C-9.495 46.475 -9.495 46.475 -10 49 C-10.80433924 51.59779834 -11.63148292 54.1742265 -12.5 56.75 C-12.83837891 57.77673828 -12.83837891 57.77673828 -13.18359375 58.82421875 C-14.87327939 63.87327939 -14.87327939 63.87327939 -16 65 C-17.99958364 65.04080783 -20.00045254 65.04254356 -22 65 C-21.36205772 61.46731716 -20.45868613 58.17574667 -19.28173828 54.78588867 C-18.93112335 53.77100876 -18.58050842 52.75612885 -18.2192688 51.710495 C-17.84011322 50.62396133 -17.46095764 49.53742767 -17.0703125 48.41796875 C-16.67931366 47.28982254 -16.28831482 46.16167633 -15.88546753 44.99934387 C-15.05814375 42.61418659 -14.22925817 40.22957056 -13.39892578 37.84545898 C-12.13373011 34.2125677 -10.87307166 30.57812816 -9.61328125 26.94335938 C-8.80755761 24.6223035 -8.00157639 22.30133702 -7.1953125 19.98046875 C-6.82020538 18.90000778 -6.44509827 17.81954681 -6.05862427 16.7063446 C-4.1084117 11.10935394 -2.10887338 5.53922422 0 0 Z M3 9 C-0.3 18.9 -3.6 28.8 -7 39 C-0.07 39 6.86 39 14 39 C11.46273527 28.7016902 7.75373303 18.90264656 4 9 C3.67 9 3.34 9 3 9 Z " fill="#000000" transform="translate(1167,316)"/>
<path d="M0 0 C1.134375 0.020625 2.26875 0.04125 3.4375 0.0625 C3.63937424 0.63275909 3.84124847 1.20301819 4.04924011 1.79055786 C6.17460289 7.79421069 8.30023919 13.79776662 10.42602539 19.80126953 C11.21645834 22.0336672 12.00682447 24.26608853 12.79711914 26.49853516 C13.56489565 28.66734598 14.33280797 30.83610873 15.1008606 33.00482178 C15.85034678 35.12168744 16.59927397 37.2387511 17.34762573 39.35601807 C18.91583443 43.78905099 20.4882181 48.21979896 22.10400391 52.63574219 C22.34274734 53.29105927 22.58149078 53.94637634 22.82746887 54.62155151 C23.43223258 56.27632535 24.04261328 57.92904357 24.65356445 59.58154297 C25.4375 62.0625 25.4375 62.0625 25.4375 65.0625 C23.4575 65.0625 21.4775 65.0625 19.4375 65.0625 C18.09355607 61.73333939 16.7618571 58.39950016 15.4375 55.0625 C15.12941406 54.29035156 14.82132813 53.51820313 14.50390625 52.72265625 C13.32621097 49.69671191 12.4375 47.33919121 12.4375 44.0625 C0.0625 44.5575 0.0625 44.5575 -12.5625 45.0625 C-14.8725 51.6625 -17.1825 58.2625 -19.5625 65.0625 C-21.8725 65.0625 -24.1825 65.0625 -26.5625 65.0625 C-21.19837289 48.73611313 -15.70680773 32.45998345 -10 16.25 C-9.60246521 15.11634003 -9.60246521 15.11634003 -9.19689941 13.95977783 C-8.44570388 11.81968163 -7.69042249 9.68107835 -6.93359375 7.54296875 C-6.2828186 5.70061646 -6.2828186 5.70061646 -5.61889648 3.82104492 C-4.18371942 0.07339859 -4.18371942 0.07339859 0 0 Z M-0.5625 9.0625 C-3.2937693 15.45688341 -5.60547631 21.97286428 -7.8125 28.5625 C-8.08271973 29.36413574 -8.35293945 30.16577148 -8.63134766 30.99169922 C-10.0455725 34.94109265 -10.0455725 34.94109265 -10.5625 39.0625 C-3.6325 39.0625 3.2975 39.0625 10.4375 39.0625 C7.1375 29.1625 3.8375 19.2625 0.4375 9.0625 C0.1075 9.0625 -0.2225 9.0625 -0.5625 9.0625 Z " fill="#000000" transform="translate(970.5625,315.9375)"/>
<path d="M0 0 C30.77777778 0 30.77777778 0 38.9375 4.6875 C42.38207811 8.54960272 43.89746866 12.34238774 44.09765625 17.53125 C43.76088774 22.98525702 42.81766838 26.88866482 39 31 C31.49003843 35.97995319 23.87107376 36.14744983 15.125 36.0625 C12.11375 36.041875 9.1025 36.02125 6 36 C6 45.57 6 55.14 6 65 C4.02 65 2.04 65 0 65 C0 43.55 0 22.1 0 0 Z M6 6 C6 13.92 6 21.84 6 30 C11.259375 30.0928125 11.259375 30.0928125 16.625 30.1875 C17.71893066 30.21481201 18.81286133 30.24212402 19.93994141 30.27026367 C25.38703991 30.31673039 29.31637137 30.12241908 34 27 C37.01872504 23.98127496 37.83354705 21.24455029 38 17 C36.53467132 12.44976883 35.23964853 9.3848023 31 7 C27.99984088 5.99994696 26.02576244 5.88424415 22.89453125 5.90234375 C22.00870361 5.90484131 21.12287598 5.90733887 20.21020508 5.90991211 C18.52834106 5.92356812 18.52834106 5.92356812 16.8125 5.9375 C13.244375 5.958125 9.67625 5.97875 6 6 Z " fill="#000000" transform="translate(337,316)"/>
<path d="M0 0 C4.35796726 4.59353306 7.3125 10.07781024 7.3125 16.4375 C5.6625 16.7675 4.0125 17.0975 2.3125 17.4375 C1.91417969 16.67824219 1.51585937 15.91898437 1.10546875 15.13671875 C0.57566406 14.14285156 0.04585937 13.14898437 -0.5 12.125 C-1.28310547 10.64580078 -1.28310547 10.64580078 -2.08203125 9.13671875 C-4.28598867 5.43128182 -5.57560787 3.80813071 -9.6875 2.4375 C-15.25295491 1.94761147 -20.09430952 1.66935459 -25.1875 4.125 C-31.19867267 9.68533472 -34.65888189 15.73512451 -35.12109375 23.98828125 C-35.14466321 25.57534636 -35.14541143 27.16289113 -35.125 28.75 C-35.11670166 29.58233154 -35.10840332 30.41466309 -35.09985352 31.2722168 C-34.89657532 38.70670084 -34.04411207 45.61553943 -28.96875 51.39453125 C-23.76802448 56.09942489 -19.32091155 56.7916455 -12.4140625 56.71875 C-7.42318278 56.20393146 -4.8229152 53.63779606 -1.5 50.125 C0.61644986 46.98681572 1.93207729 43.95757791 3.3125 40.4375 C4.9625 40.7675 6.6125 41.0975 8.3125 41.4375 C8.03171541 48.03593784 5.50218831 52.38638044 1.3125 57.4375 C-4.1751432 61.99107627 -10.34946392 63.96280747 -17.5078125 63.75390625 C-24.46434816 62.74408656 -30.19356057 59.85666226 -34.6875 54.4375 C-35.38875 53.695 -36.09 52.9525 -36.8125 52.1875 C-42.60258858 43.69537008 -43.60275363 32.4537263 -42.6875 22.4375 C-40.70095319 12.79991006 -37.47721706 5.22935934 -29.6875 -0.9375 C-19.47986141 -6.46663757 -9.85584448 -5.73014214 0 0 Z " fill="#000000" transform="translate(1087.6875,319.5625)"/>
<path d="M0 0 C5.70387437 3.31987161 8.22794033 7.53498302 10.13671875 13.75390625 C10.5299003 15.27014083 10.91152188 16.78967078 11.26171875 18.31640625 C8.29171875 18.81140625 8.29171875 18.81140625 5.26171875 19.31640625 C4.44673313 17.71350095 3.63481948 16.10903347 2.82421875 14.50390625 C2.37175781 13.61058594 1.91929687 12.71726562 1.453125 11.796875 C0.26171875 9.31640625 0.26171875 9.31640625 -0.73828125 6.31640625 C-6.32509494 3.30579056 -12.57852869 3.68801839 -18.73828125 4.31640625 C-24.48328412 7.0377234 -28.06914395 11.22672133 -30.48828125 17.06640625 C-33.73231121 27.7842511 -32.90767002 40.40544019 -27.73828125 50.31640625 C-25.06605528 54.5919678 -22.51797672 56.66523872 -17.73828125 58.31640625 C-12.07669677 59.01769013 -6.22745417 59.23562131 -1.30859375 56.00390625 C2.27112858 52.15704046 4.21046365 47.0951544 6.26171875 42.31640625 C9.23171875 42.81140625 9.23171875 42.81140625 12.26171875 43.31640625 C10.48277054 51.07199626 8.18530514 57.20477555 1.234375 61.59765625 C-5.81674306 65.27421688 -12.35333418 66.45228362 -20.17578125 64.25390625 C-27.1893118 61.67311818 -32.0296697 57.14646877 -35.61328125 50.62890625 C-40.78886675 38.96190843 -40.67737666 26.3697644 -36.765625 14.3203125 C-33.4477523 6.93101634 -28.30066241 2.36147692 -21.36328125 -1.62109375 C-13.79330608 -3.83987958 -7.19288917 -3.24075226 0 0 Z " fill="#000000" transform="translate(729.73828125,317.68359375)"/>
<path d="M0 0 C2.31787109 -0.23999023 2.31787109 -0.23999023 5 0 C6.57666016 1.59741211 6.57666016 1.59741211 7.9140625 3.83984375 C8.41711914 4.66210449 8.92017578 5.48436523 9.43847656 6.33154297 C10.21143066 7.6524292 10.21143066 7.6524292 11 9 C11.52819336 9.86383301 12.05638672 10.72766602 12.60058594 11.61767578 C14.21147939 14.25479336 15.79630353 16.90600211 17.375 19.5625 C17.92027344 20.47580078 18.46554687 21.38910156 19.02734375 22.33007812 C20.35361891 24.55217072 21.67779892 26.77548169 23 29 C26.43074796 24.99357098 28.92503762 20.78946579 31.4375 16.1875 C32.2336505 14.76391749 33.03051813 13.34073579 33.828125 11.91796875 C35.07453647 9.68241792 36.29337843 7.44180894 37.484375 5.17578125 C38.6875 3 38.6875 3 41 0 C44.3125 -0.5 44.3125 -0.5 47 0 C46.43311558 4.46323874 44.59594115 7.75680035 42.25390625 11.5078125 C41.69714455 12.41876175 41.69714455 12.41876175 41.12913513 13.34811401 C39.94719364 15.27810383 38.7549858 17.20151149 37.5625 19.125 C36.764303 20.42536964 35.9667699 21.72614704 35.16992188 23.02734375 C29.63807809 32.04288287 29.63807809 32.04288287 27 36 C26.6303565 39.10208984 26.6303565 39.10208984 26.5859375 42.63671875 C26.54726562 43.93544922 26.50859375 45.23417969 26.46875 46.57226562 C26.43729483 47.94400573 26.40604749 49.31575061 26.375 50.6875 C26.33680803 52.07098785 26.29775558 53.45445223 26.2578125 54.83789062 C26.16339483 58.2251245 26.07781882 61.61235069 26 65 C24.02 65 22.04 65 20 65 C20.06920654 64.28908203 20.13841309 63.57816406 20.2097168 62.84570312 C21.96072057 40.44142238 15.55456449 26.64973567 2.87103271 8.59129333 C0.62039194 5.32216638 0 4.11946113 0 0 Z " fill="#000000" transform="translate(1556,316)"/>
<path d="M0 0 C2.6328125 0.30078125 2.6328125 0.30078125 4.265625 1.8203125 C5.00425781 2.95533203 5.00425781 2.95533203 5.7578125 4.11328125 C6.62986328 5.44939453 6.62986328 5.44939453 7.51953125 6.8125 C12.05718125 14.20893692 16.35424299 21.75255241 20.6328125 29.30078125 C23.49791235 25.88733507 25.76357553 22.48311784 27.875 18.5625 C28.76251953 16.96245117 28.76251953 16.96245117 29.66796875 15.33007812 C30.90099078 13.09048078 32.11964001 10.84291383 33.32421875 8.58789062 C33.91847656 7.52763672 34.51273438 6.46738281 35.125 5.375 C35.65464355 4.40135498 36.18428711 3.42770996 36.72998047 2.42456055 C38.6328125 0.30078125 38.6328125 0.30078125 41.85205078 -0.01635742 C43.22852783 0.14062622 43.22852783 0.14062622 44.6328125 0.30078125 C44.6328125 4.18394486 42.95959202 6.53310875 41.01953125 9.76171875 C40.64931351 10.38930084 40.27909576 11.01688293 39.8976593 11.66348267 C38.7113009 13.67126204 37.51594939 15.67351622 36.3203125 17.67578125 C35.52609783 19.01657488 34.73247117 20.35771702 33.93945312 21.69921875 C27.87057783 31.95396133 27.87057783 31.95396133 25.9140625 34.80786133 C24.28998933 37.96781009 24.20198296 40.37111502 24.12109375 43.9140625 C24.08564453 45.16123047 24.05019531 46.40839844 24.01367188 47.69335938 C23.99111328 48.98693359 23.96855469 50.28050781 23.9453125 51.61328125 C23.91115234 52.92619141 23.87699219 54.23910156 23.84179688 55.59179688 C23.75941978 58.82803976 23.69023234 62.0640151 23.6328125 65.30078125 C21.6528125 65.30078125 19.6728125 65.30078125 17.6328125 65.30078125 C17.69154541 64.53862305 17.75027832 63.77646484 17.81079102 62.99121094 C19.15314348 41.15474089 14.29086125 27.6711963 1.51806641 10.07617188 C-0.40113797 7.25080081 -1.90856902 4.38533536 -3.3671875 1.30078125 C-2.3671875 0.30078125 -2.3671875 0.30078125 0 0 Z " fill="#000000" transform="translate(792.3671875,315.69921875)"/>
<path d="M0 0 C2.5 0.125 2.5 0.125 3.5 1.125 C3.59381302 2.96618029 3.61743954 4.81097641 3.61352539 6.65454102 C3.61341209 8.42626427 3.61341209 8.42626427 3.61329651 10.23377991 C3.60813522 11.5191716 3.60297394 12.80456329 3.59765625 14.12890625 C3.5962413 15.43705795 3.59482635 16.74520966 3.59336853 18.09300232 C3.5895441 21.57662859 3.57971446 25.06021339 3.56866455 28.54382324 C3.55844882 32.09626698 3.55381586 35.64871759 3.54882812 39.20117188 C3.53862232 46.17581791 3.51905064 53.15034997 3.5 60.125 C13.73 60.125 23.96 60.125 34.5 60.125 C34.5 61.775 34.5 63.425 34.5 65.125 C21.96 65.125 9.42 65.125 -3.5 65.125 C-3.54010881 49.19288963 -3.54010881 49.19288963 -3.54882812 42.42382812 C-3.55481579 37.7972703 -3.56191404 33.17073218 -3.57543945 28.54418945 C-3.586271 24.81596599 -3.5922774 21.08776366 -3.59487724 17.35952568 C-3.59673101 15.93410344 -3.60035071 14.50868241 -3.60573006 13.08326912 C-3.61294393 11.09336592 -3.61340808 9.10344166 -3.61352539 7.11352539 C-3.615746 5.97879288 -3.61796661 4.84406036 -3.62025452 3.67494202 C-3.45975647 0.27165443 -3.39825629 0.16991281 0 0 Z " fill="#000000" transform="translate(541.5,315.875)"/>
<path d="M0 0 C2.5 0.125 2.5 0.125 3.5 1.125 C3.59925773 3.08324698 3.62799414 5.04509897 3.62939453 7.00585938 C3.63254669 8.26386353 3.63569885 9.52186768 3.63894653 10.81799316 C3.63715675 12.20157913 3.6351058 13.58516478 3.6328125 14.96875 C3.63348559 16.37740089 3.63445565 17.78605166 3.63571167 19.19470215 C3.63718842 22.15048323 3.63503483 25.10623414 3.63037109 28.06201172 C3.62467381 31.85874584 3.62795293 35.65540928 3.63394356 39.45214081 C3.63754979 42.36196428 3.6364103 45.27177088 3.63381577 48.18159485 C3.63314667 49.581894 3.63397432 50.98219467 3.63629532 52.38249207 C3.63882283 54.33637464 3.63429033 56.29026255 3.62939453 58.24414062 C3.62859894 59.35809204 3.62780334 60.47204346 3.62698364 61.61975098 C3.5 64.125 3.5 64.125 2.5 65.125 C0.50041636 65.16580783 -1.50045254 65.16754356 -3.5 65.125 C-3.52312684 56.79771053 -3.54091683 48.47043437 -3.55181217 40.14312077 C-3.55704026 36.27679882 -3.56413654 32.41049879 -3.57543945 28.54418945 C-3.586271 24.81596599 -3.5922774 21.08776366 -3.59487724 17.35952568 C-3.59673101 15.93410344 -3.60035071 14.50868241 -3.60573006 13.08326912 C-3.61294393 11.09336592 -3.61340808 9.10344166 -3.61352539 7.11352539 C-3.615746 5.97879288 -3.61796661 4.84406036 -3.62025452 3.67494202 C-3.45975647 0.27165443 -3.39825629 0.16991281 0 0 Z " fill="#000000" transform="translate(632.5,315.875)"/>
</svg>
